<svg width="173" height="38" fill="none" xmlns="http://www.w3.org/2000/svg"><g clip-path="url(#clip0_794_25618)"><path fill="#fff" d="M0 0h173v37.483H0z"/><mask id="path-1-inside-1_794_25618" fill="#fff"><path fill-rule="evenodd" clip-rule="evenodd" d="M6.407 7.686h4.394C4.74 8.258 0 13.36 0 19.57c0 6.567 5.303 11.895 11.861 11.936H6.564s32.427.65 38.6 1.3c5.626.243 26.411 2.678 26.802 2.76 5.391.8 12.659 1.787 13.206 1.787.469.054 1.25.053 1.25.053v-5.9 5.9s.782 0 1.25-.054c.547 0 7.815-.986 13.206-1.786.39-.082 21.175-2.518 26.802-2.761 6.173-.65 38.6-1.3 38.6-1.3h-5.099C167.719 31.443 173 26.124 173 19.57c0-6.21-4.741-11.312-10.801-11.884h3.925s-32.584-.378-38.601-1.19c-6.017-.162-22.426-2.58-27.349-4.141C95.564.893 89.547.162 87.906.08L86.266 0v7.633V0s-1.485.081-1.642.081c-2.578.081-7.813 1.137-12.97 2.517-1.563.569-20.63 3.736-26.646 3.898-6.017.812-38.6 1.19-38.6 1.19z"/></mask><path fill-rule="evenodd" clip-rule="evenodd" d="M6.407 7.686h4.394C4.74 8.258 0 13.36 0 19.57c0 6.567 5.303 11.895 11.861 11.936H6.564s32.427.65 38.6 1.3c5.626.243 26.411 2.678 26.802 2.76 5.391.8 12.659 1.787 13.206 1.787.469.054 1.25.053 1.25.053v-5.9 5.9s.782 0 1.25-.054c.547 0 7.815-.986 13.206-1.786.39-.082 21.175-2.518 26.802-2.761 6.173-.65 38.6-1.3 38.6-1.3h-5.099C167.719 31.443 173 26.124 173 19.57c0-6.21-4.741-11.312-10.801-11.884h3.925s-32.584-.378-38.601-1.19c-6.017-.162-22.426-2.58-27.349-4.141C95.564.893 89.547.162 87.906.08L86.266 0v7.633V0s-1.485.081-1.642.081c-2.578.081-7.813 1.137-12.97 2.517-1.563.569-20.63 3.736-26.646 3.898-6.017.812-38.6 1.19-38.6 1.19z" fill="#fff"/><path d="M10.8 7.686l.142 1.494-.141-2.994v1.5zm-4.393 0l-.017-1.5.017 3v-1.5zm5.454 23.82v1.5l.01-3-.01 1.5zm-5.297 0v-1.5l-.03 3 .03-1.5zm38.6 1.3l-.157 1.491.046.005.047.002.064-1.499zm26.802 2.76l-.309 1.468.044.01.045.006.22-1.484zm13.206 1.787l.172-1.49-.086-.01h-.086v1.5zm1.25.053v1.5h1.5v-1.5h-1.5zm0-5.9v-1.5h-1.5v1.5h1.5zm0 0h1.5v-1.5h-1.5v1.5zm0 5.9h-1.5v1.5h1.5v-1.5zm1.25-.054v-1.5h-.086l-.086.01.172 1.49zm13.206-1.786l.22 1.484.045-.007.044-.01-.309-1.467zm26.802-2.761l.064 1.498.047-.002.045-.004-.156-1.492zm38.6-1.3l.03 1.5-.03-3v1.5zm-5.099 0l-.014-1.5.014 3v-1.5zm1.018-23.819v-1.5l-.141 2.994.141-1.494zm3.925 0v1.5l.017-3-.017 1.5zm-38.601-1.19l.201-1.486-.08-.011-.08-.002-.041 1.5zm-27.349-4.141l.454-1.43-.454 1.43zM86.266 0l.074-1.498-1.574-.078V0h1.5zm0 7.633v1.5h1.5v-1.5h-1.5zm0 0h-1.5v1.5h1.5v-1.5zm0-7.633h1.5v-1.584l-1.583.086L86.265 0zm-1.642.081v-1.5h-.047l.047 1.5zm-12.97 2.517l-.389-1.449-.063.017-.061.023.512 1.41zM45.007 6.496l-.04-1.5-.081.003-.08.01.2 1.487zM10.8 6.186H6.407v3h4.394v-3zM1.5 19.57c0-5.428 4.145-9.89 9.442-10.39l-.282-2.987C3.837 6.837-1.5 12.579-1.5 19.57h3zm10.37 10.436C6.137 29.971 1.5 25.311 1.5 19.57h-3c0 7.392 5.97 13.39 13.352 13.436l.018-3zm-5.306 3h5.297v-3H6.564v3zm38.757-1.692c-3.16-.333-12.887-.659-21.73-.901a2530.189 2530.189 0 00-16.63-.4l-.274-.005-.07-.001h-.022l-.031 1.499-.03 1.5h.023l.07.002c.06 0 .152.003.272.005a1701.397 1701.397 0 014.794.104c3.135.071 7.379.173 11.815.294 8.913.245 18.487.569 21.5.886l.313-2.983zm26.954 2.784a26.262 26.262 0 00-1.161-.153 1133.063 1133.063 0 00-10.423-1.19c-5.93-.647-12.588-1.324-15.462-1.448l-.13 2.997c2.753.119 9.3.782 15.267 1.433 2.97.325 5.777.644 7.865.887 1.044.122 1.908.224 2.521.299.678.082.94.118.905.111l.618-2.936zm12.897 1.755c.032 0-.047-.004-.341-.035a71.44 71.44 0 01-1.01-.12c-.835-.105-1.957-.252-3.234-.425a708.903 708.903 0 01-8.4-1.19l-.441 2.967c2.702.401 5.873.849 8.438 1.196 1.282.173 2.416.323 3.266.428.425.053.783.096 1.056.126.23.025.497.053.666.053v-3zm1.25 1.553v-1.5h-.029a15.271 15.271 0 01-1.05-.044L85 38.842c.305.036.673.05.933.057a23.01 23.01 0 00.477.007h.012v-1.5zm-1.5-5.9v5.9h3v-5.9h-3zm1.5-1.5v3-3zm1.5 7.4v-5.9h-3v5.9h3zm-.422-1.544c-.164.02-.42.032-.668.038a18.914 18.914 0 01-.382.006h-.028a1640.625 1640.625 0 010 3h.145c.087-.002.207-.003.344-.007.26-.007.629-.022.933-.057l-.344-2.98zm13.158-1.78c-2.689.4-5.847.845-8.4 1.19-1.278.174-2.4.321-3.235.425-.418.052-.76.093-1.01.12-.294.032-.373.035-.34.035v3c.168 0 .436-.027.665-.052.273-.03.631-.073 1.056-.126.85-.106 1.984-.255 3.266-.428 2.565-.348 5.736-.795 8.438-1.196l-.44-2.968zm26.957-2.776c-2.874.125-9.533.801-15.462 1.449a1056.2 1056.2 0 00-10.423 1.19c-.555.067-1.028.125-1.161.153l.618 2.936c-.035.007.227-.029.905-.111.613-.075 1.477-.177 2.521-.299 2.088-.243 4.895-.563 7.865-.887 5.967-.651 12.514-1.314 15.266-1.434l-.129-2.997zm38.665.2l-.03-1.5h-.024l-.069.002-.273.006a1587.516 1587.516 0 00-4.801.104c-3.138.07-7.387.172-11.829.294-8.844.243-18.571.569-21.731.901l.313 2.984c3.013-.317 12.587-.641 21.5-.886a2513.362 2513.362 0 0116.609-.398l.272-.006.07-.001h.023l-.03-1.5zm-5.099 1.5h5.099v-3h-5.099v3zM171.5 19.57c0 5.73-4.617 10.38-10.333 10.436l.029 3c7.36-.072 13.304-6.06 13.304-13.436h-3zm-9.442-10.39c5.297.5 9.442 4.962 9.442 10.39h3c0-6.99-5.337-12.733-12.16-13.377l-.282 2.987zm.141.006h3.925v-3h-3.925v3zm3.925-1.5l.017-1.5h-.093a744.529 744.529 0 01-1.316-.017 1844.381 1844.381 0 01-15.619-.273c-8.95-.197-18.487-.495-21.389-.886l-.402 2.973c3.115.42 12.878.717 21.725.912a1800.63 1800.63 0 0016.691.287l.274.003.07.001h.024l.018-1.5zm-38.56-2.69c-2.911-.078-8.44-.71-13.903-1.53-5.483-.821-10.702-1.802-13.033-2.541l-.907 2.86c2.591.821 8.038 1.83 13.495 2.648 5.476.821 11.16 1.479 14.267 1.563l.081-3zM100.628.926c-4.761-1.51-10.91-2.256-12.647-2.342l-.149 2.996c1.545.077 7.43.792 11.889 2.206l.907-2.86zM87.981-1.417l-1.641-.081-.148 2.996 1.64.081.149-2.996zM84.766 0v7.633h3V0h-3zm1.5 9.133v-3 3zM84.765 0v7.633h3V0h-3zm-.142 1.581c.13 0 .6-.024.957-.042a308.341 308.341 0 00.701-.038l.048-.002.013-.001a.97.97 0 00.003 0h.001L86.265 0l-.082-1.498h-.004l-.012.001a114.324 114.324 0 01-.741.04l-.55.027c-.182.009-.258.011-.252.011v3zM72.041 4.047c5.157-1.38 10.243-2.391 12.63-2.467l-.094-2.998c-2.77.087-8.154 1.187-13.312 2.567l.776 2.898zM45.048 7.996c3.12-.085 9.487-.934 15.182-1.814 2.867-.443 5.598-.9 7.713-1.281a111.5 111.5 0 002.668-.51c.65-.134 1.236-.267 1.555-.383l-1.025-2.82a7.632 7.632 0 01-.328.087c-.206.05-.477.11-.81.179a111.2 111.2 0 01-2.593.494c-2.086.377-4.791.83-7.638 1.27-5.734.885-11.908 1.7-14.805 1.779l.081 2.999zm-38.64-.31l.017 1.5h.093a1217.866 1217.866 0 005.097-.07 2042.5 2042.5 0 0011.87-.22c8.846-.196 18.609-.493 21.724-.913l-.402-2.973c-2.902.391-12.439.689-21.389.886a1797.748 1797.748 0 01-16.935.29H6.39l.016 1.5z" fill="#000" mask="url(#path-1-inside-1_794_25618)"/><path d="M112.083 18.677c0 4.706-2.761 9.047-7.389 12.244-4.625 3.195-11.055 5.195-18.194 5.195-7.139 0-13.57-2-18.194-5.195-4.628-3.197-7.389-7.538-7.389-12.244 0-4.707 2.761-9.048 7.389-12.245C72.931 3.237 79.361 1.238 86.5 1.238c7.139 0 13.569 2 18.194 5.194 4.628 3.197 7.389 7.538 7.389 12.245z" fill="#fff" stroke="#000" stroke-width="1.5"/><path d="M96.299 18.189c0 5.712-4.45 10.293-9.877 10.293-5.428 0-9.877-4.58-9.877-10.293 0-5.712 4.449-10.293 9.877-10.293 5.428 0 9.877 4.58 9.877 10.293z" stroke="#000" stroke-width="1.5"/><path d="M56.76 19.082c0 5.22-4.064 9.4-9.017 9.4-4.953 0-9.017-4.18-9.017-9.4 0-5.219 4.064-9.4 9.017-9.4 4.953 0 9.017 4.181 9.017 9.4zm78.453 0c0 5.22-4.065 9.4-9.018 9.4s-9.017-4.18-9.017-9.4c0-5.219 4.064-9.4 9.017-9.4 4.953 0 9.018 4.181 9.018 9.4z" fill="#fff" stroke="#000" stroke-width="1.5"/><path stroke="#000" d="M5.646 26.646l16-16m115 17l16-16m-140 16l16-16m115 17l16-16m-140 15l16-16m115 17l16-16"/></g><defs><clipPath id="clip0_794_25618"><path fill="#fff" d="M0 0h173v37.483H0z"/></clipPath></defs></svg>