<svg width="39" height="119" fill="none" xmlns="http://www.w3.org/2000/svg"><path d="M18.348.223c-1.024.27-1.734.586-2.545 1.125-.747.493-1.198 1.18-1.65 2.51-.24.707-.295 1.023-.332 2-.064 1.626-.055 1.58-.534 1.58-.6 0-.646.102-.581 1.283.064 1.04.313 2.203.562 2.556.304.446.48.614.71.707.23.083.24.13.295 1.004.083 1.19.23 1.683.793 2.547.488.744.673 1.376.48 1.608-.185.224-4.546 2.353-4.96 2.427-.222.037-.6.214-.904.428l-.507.371-.452-.325c-.95-.706-2.452-1.013-3.254-.67-.166.075-.47.177-.673.233-.885.233-2 1.255-2.526 2.324-.618 1.228-.793 1.934-.793 3.217 0 1.088.01 1.125.268 1.469.35.456.35.911.027 2.185-.138.53-.249 1.19-.249 1.469 0 .446-.046.576-.35.994-.194.27-.489.819-.664 1.228l-.322.743-.028 2.278c-.046 2.92.018 3.7.313 4.137.12.186.222.381.222.437 0 .056.147.28.322.502.563.688 1.319.818 2.987.512 1.143-.214 2.056-.977 3.393-2.845.285-.41.562-.763.599-.772.101-.046 1.41-1.664 1.807-2.231.166-.242.433-.679.59-.976.157-.288.313-.53.35-.53.13 0 .184.409.184 1.385 0 .53.074 1.404.157 1.952.102.605.157 1.506.157 2.334 0 1.18-.028 1.422-.212 1.906-.11.306-.23.641-.258.743-.037.103-.13.298-.23.437-.093.13-.167.326-.167.437 0 .103-.11.512-.24.911-.294.911-.387 2.204-.22 3.106.092.474.092.697.018.855-.341.725-.59 1.357-.618 1.599-.064.576-.249 1.525-.516 2.603-.249 1.041-.572 2.864-.857 4.844-.074.465-.176.985-.23 1.162-.056.177-.167.586-.25.92-.636 2.622-.774 3.663-.774 5.904 0 1.431-.074 1.86-.516 3.04-.176.474-.286 1.283-.406 2.863-.138 1.962-.36 4.026-.507 4.918-.074.428-.138.967-.138 1.19 0 .372.046.465.387.781.47.428 1.309.883 1.788.977.203.027.572.204.84.371.257.177.552.316.645.316.193 0 .608.41.71.698.036.102.1 1.32.147 2.705.083 2.408.166 3.18.562 5.104.037.205.11.576.166.837.046.25.148.613.221.79.074.177.23.781.341 1.348.102.558.277 1.33.378 1.701.102.382.286 1.34.425 2.139.202 1.199.248 1.748.248 3.086 0 1.023-.037 1.832-.12 2.176-.12.53-.175.604-1.493 1.989-1.392 1.451-1.64 1.646-2.701 2.027-.194.074-.636.316-.977.548-.793.53-1.042.986-1.088 1.981-.055.994.037 1.087 1.051 1.171.442.037 1.17.037 1.613 0 .765-.056.858-.084 1.512-.502.443-.279.858-.465 1.125-.511.608-.093.811-.205 1.023-.595.6-1.069 2.222-1.897 3.973-2.027.637-.046.812-.093 1.042-.297.572-.475.645-1.023.35-2.483-.479-2.333-.746-4.974-.875-8.683l-.056-1.534.323-1.134c.184-.623.378-1.46.433-1.86.185-1.301-.046-3.746-.562-6.043-.341-1.515-.323-1.664.258-1.766.627-.112 3.614-.074 3.909.046.175.075.35.298.571.735.563 1.125.793 1.227 2.72 1.237h1.143l.313.334c.176.186.554.837.858 1.45.295.605.571 1.153.627 1.218.046.065.129.233.175.39.055.15.313.754.58 1.33l.49 1.05L28.045 89c-.323 2.203-.286 3.096.249 5.69.22 1.088.93 3.477 1.078 3.616a.46.46 0 01.083.26c0 .094.166.66.36 1.256 1.4 4.267 1.548 5.094 1.253 7.223-.12.883-.147 1.386-.092 2.036.13 1.46.102 2.576-.083 3.645-.258 1.524-.304 1.673-.654 2.11-.498.632-.6.874-.655 1.543-.027.344-.12.818-.193 1.051-.139.4-.139.465.009.772.193.409.535.492 1.429.334l.636-.121.35.298c.406.335.6.353.996.111.157-.093.507-.195.783-.223.277-.037.563-.121.655-.204.083-.075.286-.14.452-.14.415 0 .783-.223 1.023-.604.11-.177.276-.372.378-.428.101-.046.341-.306.544-.557.35-.447.369-.502.369-1.116 0-.707-.194-1.32-.517-1.627-.285-.27-.451-.632-.627-1.339-.267-1.115-.285-1.645-.055-2.51.24-.93.203-1.655-.12-2.491-.193-.512-.203-.642-.203-3.645.01-1.71.056-3.635.12-4.276.443-4.658.212-9.716-.534-11.528a7.49 7.49 0 01-.286-.837 4.103 4.103 0 00-.277-.781 5.877 5.877 0 01-.313-.92c-.083-.307-.185-.614-.23-.67-.047-.065-.268-.567-.48-1.125-.369-.985-.378-1.041-.387-2.175l-.01-1.162.415-.205c.23-.112 1.005-.437 1.733-.734.72-.289 1.411-.605 1.53-.698l.222-.176-.36-1.228a34.05 34.05 0 01-.543-2.166c-.784-3.756-.701-3.44-1.521-6.136a19.932 19.932 0 01-.461-1.84 12.833 12.833 0 00-.406-1.534c-.277-.754-.48-2.009-.885-5.458a45.378 45.378 0 00-.507-3.347c-.544-2.668-.645-3.142-.793-3.662-.184-.67-.94-2.483-1.198-2.864-.102-.158-.332-.679-.498-1.153-.277-.771-.313-.976-.323-1.85 0-.688.037-1.041.13-1.208.091-.159.156-.716.202-1.832.074-1.664.249-2.612.636-3.375.102-.204.185-.446.185-.548 0-.242.387-1.218.488-1.218.037 0 .065.056.065.12 0 .075.212.54.48 1.051.257.502.59 1.153.727 1.432.314.614.858 1.171 1.595 1.618.47.288.636.334 1.116.334.691 0 1.336-.213 1.917-.632.655-.474.876-.92.996-2.054.083-.763.166-1.097.433-1.665.286-.632.332-.827.369-1.608.037-.8.01-.967-.24-1.701-.157-.456-.322-.865-.378-.92a.38.38 0 01-.101-.224c0-.065-.102-.334-.221-.604-.12-.27-.443-1.2-.701-2.073l-.48-1.571.056-1.404c.027-.763.083-1.925.11-2.576.074-1.757-.22-2.947-1.124-4.397a6.335 6.335 0 01-.332-.604c-.065-.168-1.337-1.757-1.54-1.934a2.876 2.876 0 00-.433-.251 1.466 1.466 0 01-.396-.27c-.074-.083-.526-.27-1.014-.427-.535-.168-1.107-.428-1.438-.651-.305-.205-.738-.502-.96-.65-.23-.15-.562-.298-.737-.335a1.53 1.53 0 01-.58-.233c-.139-.093-.305-.177-.37-.177-.165 0-2.018-.632-2.138-.734-.055-.046-.23-.112-.378-.14-.433-.092-.839-.38-1.152-.808-.268-.372-.277-.437-.277-1.311 0-.902.083-1.283.295-1.283.184 0 .811-.725 1.051-1.218.13-.279.304-.623.378-.762.092-.177.138-.577.148-1.237.018-1.097-.056-1.246-.637-1.246h-.295l-.037-2.445c-.027-2.082-.055-2.482-.193-2.733C24.46 2.417 22.67.865 21.943.502c-1.088-.53-2.268-.623-3.595-.279z" fill="#E6E6E6"/></svg>