<svg width="27" height="27" fill="none" xmlns="http://www.w3.org/2000/svg"><path fill-rule="evenodd" clip-rule="evenodd" d="M7.953.406C9.358.34 9.806.326 13.384.326c3.579 0 4.027.016 5.43.08 1.404.063 2.362.287 3.2.612a6.48 6.48 0 012.333 1.52 6.435 6.435 0 011.518 2.332c.326.839.549 1.797.614 3.198.064 1.407.079 1.855.079 5.432 0 3.578-.016 4.026-.08 5.431-.063 1.401-.287 2.36-.613 3.198a6.461 6.461 0 01-1.518 2.334 6.46 6.46 0 01-2.333 1.518c-.838.326-1.796.549-3.197.613-1.406.065-1.854.08-5.433.08-3.578 0-4.026-.016-5.43-.08-1.402-.063-2.36-.287-3.198-.613a6.462 6.462 0 01-2.334-1.518 6.458 6.458 0 01-1.52-2.333c-.325-.838-.547-1.797-.612-3.198C.225 17.525.21 17.077.21 13.5c0-3.578.017-4.026.08-5.43.063-1.403.287-2.361.612-3.2a6.462 6.462 0 011.52-2.333 6.457 6.457 0 012.333-1.52C5.593.694 6.55.47 7.952.407h.001zm10.755 2.37c-1.39-.063-1.806-.076-5.324-.076-3.517 0-3.934.013-5.323.077-1.285.059-1.982.273-2.447.454a4.09 4.09 0 00-1.515.984 4.086 4.086 0 00-.984 1.515c-.18.465-.395 1.162-.454 2.447-.063 1.389-.076 1.806-.076 5.323 0 3.517.013 3.934.076 5.323.059 1.285.273 1.982.454 2.447.21.571.547 1.09.984 1.515a4.09 4.09 0 001.515.984c.465.181 1.162.396 2.447.454 1.39.064 1.805.077 5.323.077 3.519 0 3.934-.013 5.324-.077 1.285-.058 1.982-.273 2.446-.454a4.09 4.09 0 001.515-.984 4.09 4.09 0 00.985-1.515c.18-.465.395-1.162.454-2.447.063-1.389.076-1.806.076-5.323 0-3.517-.013-3.934-.076-5.323-.06-1.285-.274-1.982-.454-2.447a4.091 4.091 0 00-.985-1.515 4.088 4.088 0 00-1.515-.984c-.464-.181-1.161-.395-2.446-.454zm-7.006 14.785a4.394 4.394 0 004.79-7.169 4.394 4.394 0 10-4.79 7.169zM8.596 8.712a6.771 6.771 0 119.576 9.576 6.771 6.771 0 01-9.576-9.576zm13.061-.975a1.6 1.6 0 10-2.196-2.328 1.6 1.6 0 002.196 2.328z" fill="#fff"/></svg>