<svg xmlns="http://www.w3.org/2000/svg" width="262.767" height="262.767" viewBox="0 0 7510.75 7510.75" shape-rendering="geometricPrecision" text-rendering="geometricPrecision" image-rendering="optimizeQuality" fill-rule="evenodd" clip-rule="evenodd"><defs><style>.fil1{fill:#00afca}.fil0{fill:#02333b}.fil2{fill:#fec50b}.fil4{fill:#fff;fill-rule:nonzero}</style></defs><g id="????_x0020_1"><g id="_105553210233216"><path class="fil0" d="M3755.37 862.49c1597.7 0 2892.89 1295.19 2892.89 2892.89 0 1597.69-1295.19 2892.88-2892.89 2892.88-1597.69 0-2892.88-1295.19-2892.88-2892.88 0-1597.7 1295.19-2892.89 2892.88-2892.89z" stroke="#373535" stroke-width="21.61" stroke-miterlimit="22.926"/><path class="fil0" d="M3755.37 68.57c2036.18 0 3686.81 1650.65 3686.81 3686.81 0 2036.17-1650.64 3686.8-3686.81 3686.8-2036.17 0-3686.8-1650.64-3686.8-3686.8 0-2036.17 1650.64-3686.81 3686.8-3686.81zm0 996.16c1486.01 0 2690.66 1204.65 2690.66 2690.66 0 1486-1204.65 2690.64-2690.66 2690.64-1486 0-2690.64-1204.65-2690.64-2690.64 0-1486.01 1204.65-2690.66 2690.64-2690.66z"/><path class="fil1" d="M4673.19 2068.15c-3.39-3.58-10.51-8.79-17.61-8.58-6.72.19-14.51 4.49-17.67 8.58h-8.71c-13.56-7.09-3.71-9.53-28.38-15.28 0-21.55 4.23-13.16-.63-19.24-1.16-1.45-12.95-7.72-15.7-8.35-20.01-4.63-13.05 17.73-12.05 29.77-7.64 5.12-17.2 12.05-29.1 9.93l-3.63-1.21c-1.93-5.94.54-2.31-4.36-8.58l-20.61-25.37c-7.97-10.67-13.93-17.88-22.37-27.82l-21.98-28.21c-3.99-4.86-6.71-8.3-10.74-13.27l-11.59-14.25c-2.43-4.8-.69-2.8-6.29-4.71-.36-3.66.67-.77-1.64-5.26-2.78-5.4-.89-1.61-4.43-6.27-3.62-4.76-5.12-7-9.46-11.68-.24-.3-.6-1.21-.7-.92-.1.3-.63-.79-.76-.92-1.98-1.98-1.63-1.56-2.91-2.61-4.88-8.84-14.27-19.11-21.13-27.59l-16.45-20.81c-.05-.05-2.85-2.75-3.05-2.91l-3.01-1.8-2.18-6.53-35.23-25.87c-11.21-8.38-25.31-21.18-37.59-26.51-1.16-4 .03-2.4-4.23-4.36-.31-.35-.83-1.34-.97-1-.14.33-.79-.83-.98-1.02l-47.57-35.12c-1.03-3.05-1.33-5.49-2.18-8.69 28.1-2.34 29.43-42.37 4.36-30.88-3.95 1.81-1.97 1.03-3.63 2.51-10.64.21-18.91 2.79-25.29 8.17-16.64 14-10.36 6.57-19.47 13.27-17.57 12.91-11.19 24.08-27.99 37.55-3.22 7.84-1.54 5.92-8.97 10.73-5.71 3.69-5.01 3.22-12.77 4.58-11.57 2.02-16.84 3.14-26.27 7.37.18 10.31 1.47 8.03 2.18 16.54-13.83 7.31-2.19 1.13-36.24-5.4-21.73-4.17-23.25 10.78-35.77 14.13-9.73-6.51-10.91-12.06-10.91-28.37 5.54-7.56 3.75-1.09 9.6-10.19.1-.16 2.85-5.56 2.93-5.8l.56-5.83c-10.99-14.98-9.65 9.73-32.8.13-16.17-6.7-12.2-11.96-34.86-6.68 1.36 16.32 9.83 4.43 7.63 17.46-4.35 1.8-2.8.72-7.62 4.36h-4.39l-5.03-2.18c-1.03-12.24-3.86-1.84-5.96-23.91-1.15-12.06-11.21-21.94-21.66-26.85-16.4-7.7-6.78 10.89-6.65 11.29 3.38 9.95 1.02 1.56.04 13.28-10.6-.88-8.5-2.73-10.91-13.09-17.78 4.14-8.89 4.16-15.28 17.46-12.47-.28-7.14-1.1-15.28-6.55-5.3 1.42-12.38 6.05-17.46 8.73-2.37-3.53-3.17-3.74-5.62-7.48-2.57-3.91-3.42-6.44-5.29-9.98 5.74-1.34 6.42-1.99 10.91-4.36 0-10.18-1.23-8.47-2.18-15.41v-7.74c3.05-2.97 2.18-7.09 2.18-13.96-21-11.12-18.74-21.38-24.17-30.48l-8.57-8.83c-.45-7.7-.8-7.14-2.18-13.07-14.81-7.11-22.43 2.06-33.31 3.98-19.61 3.46-19.88-7.42-30.64-10.03-6.32-1.52-13.93.63-16.9.57-5.55-.12-9.78-3.51-16.05-4.58-4.25-.73-12.43.58-18.7 1.36-8.85 1.1-9.8 1.85-15.59 6.5l-4.13 13.09c-4.9 0-9.96-.37-14.72.56-4.85.95-5.37 2.39-11.46 3.81 3.1 13.32 6.55 5.13 6.55 21.82-10.3.23-7.85 2.07-19.41 1.76-9.23-.24-4.61-3.59-12.59 5.37-7.71 8.69-1.38 4.39-14.24 7.77-7.57 2-9.37 3.99-15.15 4.74-11.06 3.86-16.55 10.39-26.77 16.59-10.08 6.11-21.7 6.19-27.5 13.85-15.83 4.05-13.49.6-24.02-6.44-10.32 6.91-8.03 6.91-13.09 17.46-18.22 0-11.19-.57-21.82 6.55v13.28l.93 2c-11.75 4.53-12.74-3.66-25.57 1.45-12.36 4.93-3.34 7.28-24.56 7.28-5.75 0-1.61-.55-2.83 2.18-8.01 0-3.62-.59-2.54 2.18l-8.71 2.18c-4.27 5.51-6.23 1.51-8.74 10.91-25.15 0-19.91 3.86-36.73 9.11l-39.65 8.35c-1.4 6.01-2.97 11.46-4.36 17.46-12.63-3.37-.89-9.84-20.25-10-5.52-.05-14.55 5.62-16.86 10.01v10.89c-11.46-1.47-8.8-4.15-15.95-5.82-12.81-3-15.82 4.57-18.97-7.26-23.41 0-9.65 5.28-24.37 8.36-8.55 1.79-19.21-1.2-12.03 14.91 5.17 11.59 2.15 5.36-.69 16.02 20.3 9.73 27.86-7.84 32.73 13.09-14.01 0-12.4-.63-21.82 4.36v13.09c17.63 0 13.68.22 26.27 4.59 13.81 4.8 5.48-4.19 23.92-4.59 5.14 3.44 5.96 5.79 10.51 9.12 5.35 3.92 7.91 3.47 13.49 6.16 0 22.97-3.53 14.28-19.78 13.17-7.3-.5-10.14.99-15.6 1.62-12.39 1.44-16.64-.14-33.57 23.18-8.43 11.61-9.61 10.76-9.61 29.68 7.18 3.45 11.35 1.93 12.86 11.4 1.21 7.56-1.86 12.45-6.31 14.8l-2.18 6.86c-2.32 3.33-2.18 1.61-2.18 10.59-5.2 1.21-10.98 2.3-15.28 4.36.14 6.21 4.5 19.75 6.55 24 32.95 0 4.79 1.21 32.82 10.82 5.15 1.77 4.08-.24 9 6.28 1.21 1.6-.06.75 2.65 3.91 13.34 15.58 19.47 5.35 38.46 13.91 0 17.72 2.18 26.14 2.18 42.75 0 14.65-.58 19.39-11.68 24.12-10.13 4.31-17.93 5.14-31.98 5.14l-6.53-2.18c-1.48-2.8-16.6-16.14-24.02-8.73-5.26 5.26.31 24.75-12.74 31.02-19.81 9.52-19.32-13.6-49.64-10.45-13.55 1.4-7.61-3.18-16.5-3.53-12.21-.51-5.21 8.65-25.16-8.31l-2.93-6.54c5.82-7.93 9.76-3.27 10.94-17.47-5.79-3.07-20.79-11.66-26.19-13.1l-8.8 8.74c-21.84 0-.67-3.75-26.12 2.18l2.56 17.39c-9.83.06-11.11-.98-17.84 2.25-2.31-8.67-12.78-17.49-18.96-22.57-9-7.39-20.27-5.19-26.87 7.29-5.22-3.5-5.61-7.4-12.76-6.31-7.75 1.18-4.77 2.55-6.55 6.57-1.39 3.17-.29 5.36-5.36 7.81-11.16 5.39-12.43-5.93-12.43 25.85v5.07c-5.3.57 1.32-1.37-3.95 1.09-1.93.91-3.73 2.25-5.11 3.22-6.04 4.25-1.07 3.73-8.77 4.71-10.31-4.63-5.1.58-10.53-6.69-4.28-5.73-.6-12.95-32.73-12.95-2.74-5.19-5.05-7.44-6.55-13.09-12.1 1-8.1 4.04-17.47 6.55v8.23c.08.52 6.81 17.59-10.9 22.32-3.73-7.77-.82-9.79-3.57-18.27-4.7-14.54-11.24-4.47-26.38-17.31-5.77-4.88-4.12-4.74-11.53-8.08l-6.55-13.08h-17.46c-13.04-19.48-7.4-13.03-18.05-19.06-12.06-6.82-7.65-15.36-25.87-9.79-29.11 8.89-26.31 10.88-43.36-21.35-31.02 0-13.39 10.9-41.46 10.9l-6.56 17.45c-2.06-4.93-2.7-7.44-4.35-10.89-18.65 9.86-14.14 27.52-30.56 19.63 2.79-10.41 7.13-5.56 10.92-21.81-4-2.68-35.23-18.7-39.29-19.64-9.13 17.25.45 1.13-2.18 32.73-4.45-1.19-1.99.69-4.38-2.18h-6.53c-13.91.51-16.94 14.55-19.65 26.19-22.42 0-42.52 19.52-29.71 36.09 7.58 9.82 5.7 4.47 5.7 20.64h-21.81c-9.26 0-10.25 2.18-21.83 2.18 0 12.34 9.11 38.77 13.09 48.12 1.04 5.96.11 4.93 2.18 8.62-14.93 9.99-6.91 9.81-6.55 26.19l-8.44 2.18c-30.68 0-34.94-21.82-37.95-25.63-5-6.33-30.04-29.38-36.54-31.11-19.04 13.95-4.65 21.85-15.85 36.61-3.57 4.69-5.84 5.54-6 11.4-6.26 2.56-1.76.67-5.68 2.6 0 .01-4.14 2.16-4.68 2.46-4.03 2.24-5.98 3.65-9.27 5.84 0 47.31 11.07 38.02 13.09 45.84-.76 9.12-4.14 20.89-4.35 30.31-1.39 17.47-9.66 22.24-10.92 37.34 7.93.66 24.42 7.84 28.98 12.48 1.9 1.92 7 9.81 7.93 11.89 3.73 8.37.49 4.28-2 14.91 7.62 5.1 15.96 14.25 24.02 19.64 3.11-4.65 3.51-2.88 4.36-8.73 18.03.29 31.23 8.26 48 10.91.1 4.25-1.37.51 1.73 4.94 1.44 2.06 3.44 3.41 5.68 5.09 5.15 3.84 7.09 3.99 10.07 9.61l5.61 2.18c1.24 4.19-1.64-.8 2.61 4.87 1.2 1.62 2.41 2.53 3.73 3.86l1.13 4.35c4.12 3.19 20.47 32.61 24 39.29-11.81 0-37.78-2.79-23.58 14.61.35.43 19.29 16.5 26.99 14.99 6.33-1.23 8.05-5.83 14.97-3.92 3.08.85 8.59 5.69 13.45 7.96 17.97 8.36 3.88 4.67 13.26 8.91 7.7 3.49 11.08-3.51 13.85-7.64 4.86 2.58 6.57 3.64 10.9 6.56 12.82-19.14-1.87-3.63 16.8-15.95l10.73-11.09c.42-.36 11.95-4.94 18.3-14.43 11.17.93 2.96 1.66 13.1 4.36 5.29-10 6.47-24.29 25.99-21.93 11.49 1.39 16.06 8.97 22.03 2.29h6.53c-3.8 8.89-3.06 6.42.31 13.12.28.56 1.99 2.78 2.51 3.37 3.45 4.01 1.32 3.94 1.57.97 24.61-4.22 7.72 4.83 28.36 6.55.9-1.33 2.01-3.49 3.18-5.55l4.33-6.58c.3-.33.77-.78 1.08-1.1.31-.32.8-.75 1.13-1.07 11.42-10.93 14.31-5.34 38.28-5.34 12.51 1.79 3.87 15.97 21.84 17.46-1.39 5.79-.54 2.39-2.19 7.39-6.36 12.35 5.61 17.41 10.91 25.34-.96 11.61-6.14 12.49-7.94 20.7-2.2 10.1 5.23 10.58 7.94 20.77-9.17 6.15-16.93 9.85-13.94 25.01 2.56 13.01 8.87 19.68 22.79 20.82 4.55 2.33 1.86 1.61 8.6 2.18-1.89 7.13-2.46 5.86-8.48 8.98-26.45 13.72-14.26-9.8-38.53-8.18-15.99 1.06-5.23-5.08-29.7 1.26-10.5 2.72-18.33-6.7-43.01 4.8-5.62 2.63-5.8 4.8-11.21 8.42.7 8.42 2.18 8.6 2.18 19.64-20.93 5.59 8.73 15.82 8.73 39.28 9.92 2.31 6.35.19 11.73.62 7.28.56-6.7-2.99 3.1.38l2.17 1.3c5.41 5.7-.22 3.45-.53 4.34-.12.33-.89.03-1.05.01-10.48-1.61-5.4-3.78-13.74-.78-6.96 2.5-7.04 7.51-24.21 3.2-9.36-2.34 2.19-2.34-9.64-1.84-11.21.49-8.74 2.51-22.39-.67-.01 0-14.91 13.98.09 23.89l10.43 2.7c16.12 2.68 11.36 6.05 22.27 17.01l27.07 38.39c13.19 16.27 9.98 5.5 9.98 42.39 14.54 0 16.92-3.41 28.37-4.36l15.18 24.1c10.44 16.93 5.5.5 8.04 6.97.19.5 1.12.37 1.4.39 9.52.51 9.61-4.79 22.35-.03 15.14 5.66 8.19 5.67 29.41 5.67 0 50.57-13.27 32.95-7.84 62.24 1.6 8.65 1.74 15.38 3.49 22.87 4.97-1.33 25.11-19.94 30.02-24.52 20.84-19.4 6.64-9.47 35.99-20.76 23.81-9.17 74.33 8.03 84.58 21.28l8.71 2.18c4 7.54 2.59 1.4 6.57 6.55 10.31 4.19 13.27 13.63 24.52 25.66 5.66 6.05 19.35 19.42 21.3 26.73 14.17-.32 27.95-6.26 41.45-6.56 0-24.98-46-256.14-48.01-290.24-1.61-11.29-6.26-26.28-6.55-39.29 8.88-.73 3.92-1.18 10.92-2.18 13.71-.81 26.37-5.56 40.18-6.55 6.47-1.88 13.43-1.86 18.95-4.36 9.49 0 62.09-9.53 65.27-13.09 32.42-.52 35.14-15.78 57.39 1.52l30.68 21.62c8.24 5.93 4.38 5.6 14.48 7.41.12 4.75-7.28-.86 12.22 11.8 34.66 22.48 44.58 26.56 80.95 43.45 11.99 5.56 15.9 12.52 29.05 14.6.79 2.47-1.86 1.32 2.78 3.8 4.61 2.46.11 1.71 5.96 1.08 6.63 13.68 23.44 15.72 38.02 13.53 7.59-1.16 18.37-1.8 23.73-2.5 57.44-7.4 72.86-7.19 131.04-7.19 8.48 0 16.99.06 25.47-.03 19.52-.21 22.96 1.53 46.3 21.52 5.82 4.98 3.73 4.6 8.22 4.71 0 10.47-1.32 4.82 4.35 6.54-2.48 7.42.71 10.89 3.73 18.1 2.63 6.29 4.44 11.6 7.19 16.83 9.42-.79 13.88-4.15 24-4.36v22.17l2.02 63.01c2.16 12.46-2.39 4.07 4.52 8.65 1.52 2.61-2.27 1.21 7.53 3.24 5.77 1.19 8.05.84 13.91 1.52 6.98.8 17.44 2.34 24.4 3.96.97 11.67 12.83 37.38 17.73 52.11 1.84 5.52 4.71 11.47 6.28 16.7 1.53 3.96 1.72 4.31 2.18 9.74 8.48 0 11.79 2.58 18.18.76 9.93-2.84 20.89-16.36 46-19.64 20.27-2.66 49.59 13.21 64.57 23.25 5.43-3.63 8.74-7.62 13.62-12.55 5.05-5.11 11.39-8.77 14.76-14.24 1.59-1.46.79-.29 2.88-3.25.92-1.3 1.11-.9 2.47-3.98 3.89-8.71 2.53-4.14 1.19-9.63 6.72-4.04 1.66 4.76 6.55-7.43 4.33-4.76 5.7-4.94 9.45-11.46 10.04-17.46 6.11-12.83 18.91-29.11 12.86-16.36 10.26-16.38 24.32-23.7 8.87-4.62 5.8-6.29 17.81-17.09l18.98-17.2c5.95-3.32 5.12 2.67 2.18-6.28l-2.18-.83.59-4.73 10.32-8.74 3.92-2.17c23.19 2.9 19.67 5.87 30.28 9.43 13.57 4.57 96.5 8.83 116.38-.7 0-12.38-.96-15.19-2.18-24.19-1.59-4.72-1.45-4.56-2.18-9.64-.26-9.07-1.47-5.55-2.19-14.18 18.85-4.4 19.74 2.18 36.55-.46 15.69-2.46 18.68-8.43 35.55.38 17.1 8.93 42.15 15.36 67.58 15.36l6.53 2.18c4.88-5.48 14.41-3.12 24.03-17.46 32.24 15.47 42.11-12 85.12-.01 3.89 1.09 11.12 3.64 13.64 3.88 10.7.98 11.72-3.85 11.74-3.87h6.27c6.55-4.45 38.89-1.26 48.5.58 3.86.73 13.61 4.84 19.28 7.04 14.32 5.56 6.63 1.1 22.76 1.1 3.93 7.42 20.82 28.46 28.39 32.71 3.98 2.24 17.43 6.04 23.55 7.21 9.4 1.78 12.28-1.97 20.08-7.18 0-30.84.41-8.62 13.99-31.84l5.65-7.44c-4.45-6.65-10.57-8.5-9.57-16.4 1.26-10.05 7.46-10.49 11.75-16.33-.17-7.44-3.05-23.99-6.26-28.67-6.77-9.88-9.17-.44-16.05-21.04-3.42-10.25-10.11-12.87-13.27-21.65-2.38-6.59-.62-8.24-2.79-14.74-1.78-5.33-4.33-4.59-5.28-12.81l-2.19-11.39c-1.59-5.07-3.05-8.47-4.35-14.1 6.37-9.53 20.12-20.16-6.36-19.81-33.47.43-20.32-1.89-32.93-8.57v-8.72c6.72-4.49 12.03-13.63 22.38-14.23 11.13-.65 4.61 8.28 30.29-.76 20.17-7.09 42.55-9.33 62.98-15.57.03-5.37-.73.26 2.19-2.18 21.13 14.14 13.98 2.18 37.1 2.18.93-4 1.83-9.85 3.21-14.25 2.15-6.83 3.82-6.84 5.52-14.13-10.78-2.51-15.38-8.61-24-10.9 8.07-16.82 2.06-32.56 5.54-53.39 2.86-17.2 5.17-34.73 7.55-51.38 1.22-4.02.69-3.94 2.18-7.58 1.78-5.9 2.97-12.61 4.15-18.81 1.46-7.71 1.26-14.37 6.8-17.24h10.87c3.6 4.03 2.53 1.32 9.79 3.15 5.07 1.29 7.48 2.05 11.74 3.69 6.81 2.61 12.06 6.24 22.14 6.24 21.88 0 29.65-6.55 48.01-6.55 6.47 27.8 25.19-2.44 41.16-9.03 13.42-5.53 26.59-24.34 26.49-30.25l-21.15-37.77c-8.02-15.46-5.03-30.12-5.03-53.9 4.43-2.97 8.75-6.3 13.45-8.36 9.98-4.36 20.91-4.45 26.1-17.73 4.15-10.61-.03-7.32-.14-17.65-.19-19.86 27.59-25.21 41.33-45.73-6.54-9.77-6.64-7.58-18.88-11.67l-28.32-17.54c-18.13-10.49 5.56-24.09-6.18-30.9-13.88-8.03-16.55 16.71-37.35 21.75-24.77 6.01-35.79-5.29-48.94 14.36-18.35-9.71-44.58-11.59-43.31-34.62.43-7.74 1.94-2.4 2.06-11.49.15-11.94.44-7.63-6.76-10.62l-39.93-16.83c-19.99-6.3-6.92-44.54-63.52-56.5-18.67-3.93-42.21-.4-53.68 5.67.42 19.36 7.63 2.7-.02 19.64-10.46 0-4.81-1.32-6.53 4.35-11.14-4.3-20.34-5.39-26.21 2.19h-8.36z"/><path class="fil2" d="M3755.37 1029.25c1505.6 0 2726.13 1220.53 2726.13 2726.13 0 1505.59-1220.53 2726.12-2726.13 2726.12-1505.59 0-2726.12-1220.53-2726.12-2726.12 0-1505.6 1220.53-2726.13 2726.12-2726.13zm0-69.11c1543.77 0 2795.24 1251.47 2795.24 2795.24 0 1543.76-1251.47 2795.23-2795.24 2795.23-1543.76 0-2795.23-1251.47-2795.23-2795.23 0-1543.77 1251.47-2795.24 2795.23-2795.24z"/><path class="fil1" d="M3755.37 92.84c2022.77 0 3662.55 1639.77 3662.55 3662.54 0 2022.76-1639.78 3662.54-3662.55 3662.54-2022.76 0-3662.54-1639.78-3662.54-3662.54 0-2022.77 1639.78-3662.54 3662.54-3662.54zm0-92.84c2074.04 0 3755.38 1681.34 3755.38 3755.38 0 2074.03-1681.34 3755.37-3755.38 3755.37C1681.34 7510.75 0 5829.41 0 3755.38 0 1681.34 1681.34 0 3755.37 0z"/><path class="fil0" d="M2405.2 3418.27l20.2-119.88h477.5l-195.39 912.68 229.51 974.1h-471.59l-60.24-298.55v298.55h-470.2V3298.39h470.2v119.88zm1043.36 1157.64v609.25h-470.2V3298.38h612.44c232.14 0 324.11 158.28 324.11 374.24v529.03c0 215.97-91.97 374.25-324.11 374.25h-142.25zm1348.17-355.6c5.81 3.46 11.54 7.13 17.2 11.02 71.86 49.49 101.71 125.33 101.71 211.02v411.19c0 224.09-134.03 331.62-351.69 331.62H3979.1V3298.38h587.37c116.83 0 230.93 33.22 293.42 138.97 34.52 58.4 40.71 141.29 40.71 207.69v353.52c0 105.77-38.82 178.09-103.87 221.75zm663.34-609.7v434.92h300.87v307.22h-300.87v832.4h-470.2V3298.37h791.11v312.23h-320.92z"/><path d="M1993.34 5126.83V3356.72h353.52v684.48h12.53l115.33-684.48h356.03l-183.03 854.96 215.62 915.15h-350.17l-153.78-762.21h-12.53v762.21h-353.52zm1043.36 0V3356.72h554.1c177.17 0 265.77 105.3 265.77 315.91v529.03c0 210.61-88.6 315.92-265.77 315.92h-200.58v609.25H3036.7zm353.52-799.81h32.59c53.49 0 80.24-26.74 80.24-80.65v-608.42c0-57.25-25.92-85.67-77.73-85.67h-35.1v774.74zm647.22 799.81V3356.72h529.03c118.67 0 199.74 36.77 243.2 110.31 21.73 36.77 32.59 96.12 32.59 178.01v353.52c0 143.75-83.57 215.62-250.73 215.62v17.56c75.22-3.34 138.32 12.53 189.3 47.64 50.98 35.1 76.46 89.42 76.46 162.97v411.19c0 182.2-97.78 273.29-293.35 273.29h-526.51zm353.52-190.55h32.59c53.49 0 80.22-30.09 80.22-90.68v-452.98c0-67.28-25.06-100.71-75.21-100.71h-37.61v644.36zm0-812.35h32.59c53.49 0 80.22-27.58 80.22-82.73v-403.67c0-56.82-27.58-85.25-82.73-85.25h-30.09v571.65zm657.24 1002.9V3356.72h674.44v195.56h-320.92v551.6h300.87v190.55h-300.87v832.4H5048.2z" fill="#00afca" fill-rule="nonzero"/><path class="fil4" d="M1363.91 6301.91l391.06-462.54 144.81 122.42c46.28 39.14 46.16 86.23-.37 141.26l-116.86 138.24c-46.54 55.04-92.95 62.98-139.25 23.84l-52.42-44.31-134.6 159.21-92.38-78.12zm269.07-130.89l8.51 7.21c13.98 11.82 26.87 10.73 38.78-3.35l134.42-158.99c12.64-14.95 12.16-28.09-1.38-39.55l-9.16-7.75-171.18 202.43zm55.96 407.15l338.4-502.36 157.26 105.92c50.28 33.88 55.29 80.71 15.03 140.47l-92.03 136.62c-22.37 33.21-49.25 48.54-80.65 46.01l-84.7 243.97-105.31-70.94 88.38-218.72-7.12-4.8-128.94 191.41-100.33-67.58zm262.34-172.93l10.66 7.18c14.24 9.6 28.23 4.19 41.96-16.19l101.14-150.14c11.51-17.08 10.37-30.26-3.38-39.53l-11.39-7.66-138.99 206.34zm128.05 317.19l182.17-366.45c32.07-64.54 75.27-83.3 129.55-56.33l89.12 44.31c54.29 26.98 65.39 72.74 33.32 137.26l-182.17 366.46c-32.09 64.54-75.27 83.31-129.55 56.32l-89.12-44.29c-54.3-27-65.4-72.75-33.32-137.29zm300.81-333.35l-202.04 406.41c-5.84 11.78-2.9 20.59 8.89 26.45 11.78 5.86 20.59 2.9 26.45-8.89l202.04-406.39c5.84-11.79 2.9-20.61-8.9-26.47-11.78-5.86-20.58-2.88-26.44 8.89zm29.43 598.17l210.86-567.81 216.35 80.34-23.3 62.73-102.94-38.23-65.7 176.94 96.52 35.84-22.71 61.12-96.5-35.84-99.16 267.02-113.4-42.12zm327.98 122.36l154.24-585.75 116.99 30.81-154.24 585.75-116.99-30.81zm231.39 67.56l100.31-597.35 178.51 29.98c40.06 6.73 65.33 23.73 75.83 51.01 5.25 13.64 5.55 34.29.92 61.91l-20.04 119.31c-8.13 48.51-40.43 68.03-96.82 58.56l-.99 5.91c25.56 3.14 45.96 12.08 61.18 26.8 15.2 14.74 20.74 34.52 16.57 59.32l-23.3 138.77c-10.32 61.5-48.47 86.7-114.48 75.61l-177.68-29.84zm130.09-44.27l11.01 1.85c18.04 3.02 28.78-5.62 32.2-26.06l25.68-152.86c3.8-22.7-2.75-35.41-19.67-38.25l-12.7-2.12-36.51 217.45zm46.03-274.13l11 1.85c18.06 3.02 28.65-4.77 31.77-23.39l22.87-136.22c3.22-19.18-4.47-30.32-23.1-33.45l-10.14-1.72-32.4 192.92zm255.72 292.78l22.12-408.65c3.89-71.96 36.1-106.3 96.65-103.03l99.38 5.38c60.54 3.27 88.86 40.9 84.97 112.85l-22.12 408.66c-3.89 71.95-36.1 106.29-96.65 103.01l-99.37-5.37c-60.55-3.28-88.87-40.89-84.98-112.85zm144.17-425.24l-24.52 453.19c-.71 13.14 5.49 20.06 18.64 20.76 13.13.71 20.06-5.5 20.77-18.62l24.52-453.19c.71-13.15-5.5-20.07-18.65-20.79-13.14-.7-20.05 5.51-20.76 18.65zm247.69 545.08l49.32-307.88-67.11-297.56 122.64-3.61 33.15 193.86 4.29-.13 21.74-195.47 123.47-3.63-50.36 301.03 68.16 304.42-123.48 3.63-33.35-199.86-4.29.12-21.54 201.47-122.63 3.61zm444.02-32.02l-84.3-599.8 119.79-16.84 84.32 599.81-119.81 16.83zm240.42-36.63l-149.48-586.98 117.24-29.85 112.75 234.23 4.16-1.06-62.87-246.94 117.23-29.85 149.47 586.98-117.24 29.86-107.25-212.62-4.16 1.06 57.38 225.31-117.21 29.85zm443.75-437.38l135.01-57.43 77.35 181.84c28.14 66.19 14.3 111.08-41.48 134.81l-98.7 41.97c-55.79 23.73-97.79 2.45-126-63.87l-160.19-376.6c-28.21-66.31-14.42-111.34 41.38-135.06l91.59-38.96c55.26-23.51 96.99-2.11 125.2 64.2l36.6 86.06-111.3 47.35-45.61-107.23c-5.21-12.25-13.58-15.83-25.15-10.91-12.11 5.15-15.59 13.78-10.45 25.88l176.31 414.48c6.05 14.22 16.44 18.18 31.19 11.92 14.2-6.04 18.28-16.17 12.24-30.39l-58.77-138.16-23.68 10.09-25.53-60zm382.46 160.34l-51.54-96.97 96.98-51.53 51.53 96.97-96.97 51.53zm274.3-142.02l-338.84-502.08 100.29-67.67 131.01 194.14 3.57-2.4-98.31-216.23 100.98-68.15 111.75 277.54 236.32 218.29-99.31 67.03-189.51-186.75-3.55 2.4 145.9 216.19-100.27 67.67zm335.68-236.47l-46.95-58.01-205.3-430.96-78.02 63.13-42.11-52.02 177.4-143.56 49.31 60.91 200.25 432.46 96.48-78.09 41.02 50.7-192.07 155.44z"/><path class="fil2" d="M693.72 5752.71c29.77-.81 67.44-9.04 93.4-13.39 46.92-7.83 84.88-25.11 104.15-61.22 30.09-56.37 6.48-176.19-4.99-235.33-6.53 182.62-32.63 253.29-197.43 302.28-109.08-172.85-209.18-365.49-302.48-573.17-12.55-83.09-12.51-160.68 14.69-216.58 89.79-179.36 610.72-259.05 685.27-71.61-166.66-164.94-555.49-39.35-641.25 87.98 165.66-126.15 778.45-305.24 468.81 176.5-9.72 56.89-12.97 80.16 11.33 131.3 30.86-104.54 56.06-97.58 69.58-130.86l-56.76 19.81c2.96-12.18-2.52-.89 6.56-14.98 18.48-28.62 62.8-45.63 93.51-51.75-19.35-19.91-43.77-15.98-68.87-26.46 42.37-23.3 51.61-14.93 93.25-18.95l-13.49-46.66 50.16 20.06c4.8-21.06 15.76-27.62 13.1-56.81-2.45-26.88-18.69-47.07-29.31-68.65 18.16 3.82-1.83-8.23 20.12 8.78 24.72 19.19 46.3 82.81 43.83 124.91 36.42 10.59 70.26 26.21 89.33 80.05 28.66 80.98 18.2 224.52-12.27 297.34l-38.38 84.72c-.5.91-1.16 2.17-1.63 3.07l-41.67 60.63c-23.02 26.1-50.69 58.48-79.51 85.29l-55.85 65.28c-27.23 46.12-25.15 82.5-22.28 137.69 10.2 94.31 16.27 204.5 16.66 302.45-85.82-90.83-166.64-192.66-243.15-304.05 44.75-5.26 113.44-10.49 148.13-22.42l20.47-11.94-5.75-56.03c-63.88 18.77-121.22 27.66-185.36 37.96 27.42 5.93 122.35 3.92 154.99-.09-46.49 24.59-105.6 31.48-139.79 41.82-19.32-28.39-38.35-57.39-57.14-86.98zm314.56-466.3c47.62-66.1 91.86-67.89 114.11-162.06-11.53 11.51-2.01 1.45-8.71 9.81-7.9 9.88.31-.54-4.53 6.11l-25.26 33.64c-12.11 13.95-26.28 27.75-40.26 42.59-21.03 22.34-30.83 32.18-42.51 56.04-7.37 15.04-12.41 22.85-12.01 42.5l19.16-28.63zm132.18 138.83c18.05-77.18 97.48-312.32 32.83-352.5 46.77 82.15-51.08 418.47-167.2 531.01 53.68-7.53 144.24-147.7 172.59-208.27l27.52-82.08c-8.75 11.72-80.36 145.48-65.74 111.85zm5685.57 327.47c-29.76-.81-67.44-9.04-93.4-13.39-46.92-7.83-84.87-25.11-104.14-61.22-30.1-56.37-6.49-176.19 4.98-235.33 6.53 182.62 32.64 253.29 197.43 302.28 109.08-172.85 209.19-365.49 302.48-573.17 12.55-83.09 12.52-160.68-14.69-216.58-89.77-179.36-610.71-259.05-685.25-71.61 166.66-164.94 555.48-39.35 641.25 87.98-165.67-126.15-778.46-305.24-468.81 176.5 9.71 56.89 12.97 80.16-11.34 131.3-30.85-104.54-56.05-97.58-69.57-130.86l56.76 19.81c-2.96-12.18 2.52-.89-6.57-14.98-18.48-28.62-62.79-45.63-93.5-51.75 19.35-19.91 43.77-15.98 68.86-26.46-42.37-23.3-51.61-14.93-93.25-18.95l13.5-46.66-50.17 20.06c-4.79-21.06-15.76-27.62-13.09-56.81 2.45-26.88 18.68-47.07 29.3-68.65-18.16 3.82 1.84-8.23-20.1 8.78-24.73 19.19-46.3 82.81-43.83 124.91-36.43 10.59-70.26 26.21-89.33 80.05-28.66 80.98-18.2 224.52 12.26 297.34l38.39 84.72c.49.91 1.16 2.17 1.63 3.07l41.66 60.63c23.02 26.1 50.7 58.48 79.52 85.29l55.84 65.28c27.25 46.12 25.16 82.5 22.29 137.69-10.2 94.31-16.27 204.5-16.67 302.45 85.82-90.83 166.65-192.66 243.15-304.05-44.75-5.26-113.44-10.49-148.12-22.42l-20.47-11.94 5.74-56.03c63.89 18.77 121.22 27.66 185.37 37.96-27.43 5.93-122.35 3.92-155-.09 46.5 24.59 105.61 31.48 139.79 41.82 19.33-28.39 38.36-57.39 57.14-86.98zm-314.54-466.3c-47.63-66.1-91.86-67.89-114.11-162.06 11.53 11.51 2.01 1.45 8.71 9.81 7.9 9.88-.31-.54 4.52 6.11l25.26 33.64c12.12 13.95 26.29 27.75 40.27 42.59 21.03 22.34 30.83 32.18 42.5 56.04 7.37 15.04 12.42 22.85 12.02 42.5l-19.16-28.63zm-132.19 138.83c-18.05-77.18-97.48-312.32-32.83-352.5-46.76 82.15 51.08 418.47 167.2 531.01-53.68-7.53-144.24-147.7-172.59-208.27l-27.5-82.08c8.75 11.72 80.36 145.48 65.73 111.85z"/><path class="fil4" d="M873.98 4426.16l-559.35 99.92-14.01-78.43 240.6-42.97-247.81 2.56-14.08-78.82 273.47 2.25 284.48-109.95 13.71 76.71-258.4 98.08 267.39-47.77 14.01 78.43zm-617.37-282.39l-8.83-116.1 562.08-102.19 5.9 77.58-157.23 23.39 4.32 56.84 158.96-.64 5.89 77.57-571.09-16.44zm353.76-60.8l-3.71-48.69-286.54 44.26.33 4.42 289.91.01zm190.34-210.93l-62.1-1.57-450.38-108.13-2.18 86.23-53.1-1.35 4.21-166.55 62.09 1.58 451.19 108.28 2.53-100.04 52.29 1.33-4.55 180.22zm-549.8-369.74l8.83-116.1 571.05-16.04-5.9 77.58-158.95-.65-4.32 56.84 157.22 23.4-5.89 77.57-562.04-102.59zm358.88-6.61l3.69-48.69-289.94.42-.33 4.42 286.58 43.85zm234.15-196.26l-559.34-99.91 14.01-78.43 240.59 42.97-233.37-83.39 14.08-78.82 255.79 96.77 304.96-4.66-13.71 76.71-276.38 2.55 267.39 47.76-14.01 78.43zm58.77-276.87l-546.6-155.23 22-77.43 235.36 66.85 10.11-35.62-235.36-66.84 21.76-76.65 546.6 155.23-21.77 76.64-260.91-74.09-10.11 35.61 260.91 74.1-21.98 77.43zm-95.28-343.18l29.53-74.88 124.66 49.15c12.24 4.83 20.67 1.37 25.29-10.36 4.43-11.22.53-19.25-11.71-24.08L860.54 2574c-10.99-4.33-21.27-4.2-31.04.45-2.83 1.33-7.45 3.54-13.89 6.34l-91.27 33.65c-13.94 5.32-22 8.19-24.05 8.69-9.93 2.86-18.47 3.67-25.41 2.25-5.63-1.07-14.18-3.87-25.92-8.49l-112.68-44.43c-55.78-22-74.97-55.24-57.51-99.53l20.17-51.16c17.47-44.3 54.19-55.49 109.97-33.5l91.46 36.07-29.51 74.88-108.19-42.66c-12.23-4.83-20.56-1.62-24.99 9.6-4.62 11.73-.82 20.01 11.41 24.84l103.82 40.93c19.22 7.58 36.46 8.47 51.53 2.44l97.19-36.95c7.86-4.25 20.03-9.11 36.59-14.55 5.8-.45 13.41 1.1 22.63 4.74l127.03 50.09c55.91 22.05 75.1 55.28 57.63 99.57l-20.18 51.16c-17.46 44.29-54.05 55.54-109.82 33.54l-108.07-42.61zm309.05-232.47L658.03 2212.1l-27.88 54.45-47.27-24.21 92.45-180.52 47.27 24.21-27.88 54.45 458.45 234.8-36.69 71.64zm-348.66-539.97l62.85-98.02L1341 2065.7l-42 65.49-139.62-75.98-30.77 48 127.32 95.18-41.99 65.49-446.12-356.94zm319.07 164.42l26.36-41.11-255.44-137.17-2.39 3.73 231.47 174.55zm299.47-64.14l-446.75-351.08 49.73-63.28 235.01 121.22-204.18-160.46 49.73-63.28 446.75 351.09-49.73 63.28-214.25-105.09 183.42 144.32-49.73 63.28zm261.74-302.41l-392.09-411.23 91.74-87.47c34.75-33.13 72.88-27.96 114.34 15.53l128.56 134.84c41.29 43.3 44.55 81.52 9.7 114.75l-33.39 31.84 139.39 146.2-58.25 55.54zm-117.24-239.6l8.05-7.67c12.92-12.32 12.83-25.23-.22-38.91l-140.87-147.75c-13.05-13.7-25.94-14.38-38.85-2.06l-8.06 7.67 179.95 188.73zm325.06 48.05l-351.09-446.75 99.46-78.16c37.44-29.43 74.78-20.55 111.83 26.6l110.72 140.89c12.77 16.25 20.74 29.44 24.02 39.46 4.47 14.58 2.68 29.46-5.27 44.75l178.76 140.85-67.39 52.96-163.46-138.54-4.01 3.15 129.71 165.06-63.28 49.73zm-254.99-454.73L1757 1257.12l8.33-6.55c13.82-10.86 14.97-23.7 3.28-38.58l-121.08-154.09c-11.69-14.88-24.45-16.79-38.26-5.93l-8.34 6.55zm442.54 212.79l-219.95-343.05c-32.37-50.47-28.38-88.73 12.05-114.64l46.08-29.55c40.43-25.92 76.86-13.58 109.22 36.89l219.95 343.05c32.37 50.47 28.36 88.73-12.07 114.64l-46.06 29.54c-40.43 25.93-76.85 13.59-109.21-36.88zm-161.91-401.63L2120.91 1243c7.1 11.06 16.06 13.13 26.79 6.26 10.5-6.74 12.14-15.61 5.05-26.67l-239.34-373.3c-7.1-11.07-15.84-13.28-26.34-6.54-10.73 6.87-12.61 15.88-5.51 26.94zm442.57 320.24L2065.11 684.2l146.13-74.84 24.22 47.27-74.5 38.16 87.31 170.5 65.91-33.76 23.84 46.56-65.91 33.75 123.64 241.41-71.64 36.69zm210.26-109.19l-208.44-528.6 175.19-69.08 19.48 49.41-100.32 39.56 70.26 178.2 100.33-39.56 19.19 48.66-100.32 39.56 80.3 203.65 101.82-40.14 19.19 48.67-176.69 69.67zm196.55-293.4l77.43-22 36.6 128.9c3.6 12.65 11.46 17.25 23.59 13.82 11.6-3.29 15.62-11.28 12.02-23.93l-33.67-118.58c-3.23-11.35-9.57-19.45-19.2-24.38-2.79-1.45-7.35-3.78-13.48-7.19l-82.14-52.1c-12.68-7.84-19.86-12.5-21.5-13.84-8.31-6.15-14.13-12.43-17.21-18.82-2.56-5.12-5.54-13.62-8.98-25.75l-33.09-116.51c-16.39-57.68-1.62-93.11 44.18-106.12l52.9-15.03c45.81-13.01 76.98 9.38 93.36 67.06l26.87 94.58-77.43 21.98-31.77-111.87c-3.59-12.65-11.19-17.32-22.81-14.02-12.12 3.45-16.4 11.48-12.8 24.13l30.49 107.35c5.64 19.88 15.41 34.12 29.34 42.42l88.35 54.82c8.16 3.67 19.4 10.38 33.78 20.25 3.88 4.33 7.26 11.33 9.97 20.87l37.3 131.36c16.42 57.81 1.65 93.23-44.15 106.24l-52.9 15.03c-45.81 13.01-76.95-9.25-93.33-66.91l-31.74-111.75zm300.01-82l79.23-14.15 23.56 131.91c2.31 12.94 9.68 18.31 22.08 16.1 11.88-2.12 16.67-9.66 14.36-22.6l-21.67-121.34c-2.07-11.62-7.58-20.31-16.67-26.19-2.63-1.72-6.92-4.49-12.69-8.5l-76.54-60.03c-11.83-9.07-18.51-14.42-20.01-15.92-7.65-6.94-12.81-13.78-15.23-20.44-2.04-5.36-4.16-14.11-6.37-26.52l-21.3-119.23c-10.54-59.03 7.69-92.81 54.56-101.18l54.15-9.67c46.87-8.37 75.67 17.01 86.21 76.03l17.29 96.8-79.23 14.15-20.45-114.49c-2.31-12.94-9.41-18.34-21.28-16.23-12.41 2.23-17.47 9.8-15.16 22.74l19.62 109.86c3.64 20.34 11.93 35.48 24.97 45.15l82.44 63.35c7.75 4.47 18.27 12.27 31.59 23.52 3.44 4.7 6.09 11.99 7.84 21.76l24 134.42c10.58 59.16-7.65 92.93-54.52 101.31l-54.15 9.67c-46.86 8.37-75.64-16.87-86.19-75.9l-20.42-114.35zm315.78 146.4l-71.64-563.67 79.85-10.15 71.64 563.68-79.85 10.14zm166.56-101.33l-10.3-407.38c-1.51-59.95 21.73-90.6 69.72-91.81l54.72-1.38c48-1.22 72.77 28.22 74.28 88.16l10.3 407.38c1.52 59.94-21.73 90.57-69.73 91.78l-54.71 1.38c-48.01 1.22-72.77-28.21-74.28-88.14zM3583 323.03l11.2 443.31c.33 13.14 6.94 19.55 19.66 19.23 12.48-.31 18.47-7.04 18.15-20.19l-11.21-443.31c-.32-13.14-6.65-19.55-19.13-19.23-12.74.31-19 7.04-18.67 20.19zm220.1 494.59l43.07-566.57 80.25 6.1 30.08 262.72 19.68-258.94 80.26 6.1-43.07 566.56-80.26-6.09-31.92-236.49-17.83 232.71-80.26-6.1zM4251.18 286l114.62 20.48-41.55 569.77-76.59-13.68 16.66-158.08-56.12-10.03-39.11 154.07-76.58-13.69 158.68-548.85zm-29.57 357.72l48.07 8.59 28.77-288.51-4.35-.78-72.49 280.7zm168.64 249.5l127.74-553.65 78.43 18.1-115.98 502.68 87.83 20.27-11.76 50.97-166.25-38.36zm335.61 93.44l208.44-528.59 117.3 46.25c44.54 17.57 55.86 54.34 33.87 110.12l-34.44 87.34c-22 55.78-55.37 74.93-99.91 57.36l-2.01 5.11c44.54 17.57 55.91 54.2 33.87 110.11l-39.91 101.2c-22 55.78-55.36 74.92-99.9 57.35l-117.31-46.26zm93.32-19.42l10.35 4.07c16.6 6.55 28.38.81 35.42-17.04l58.69-148.87c6.94-17.59 2.2-29.7-14.4-36.24l-10.35-4.08-79.72 202.16zm98.9-250.83l10.35 4.08c16.6 6.55 28.28 1.06 35.22-16.54l50.09-127.03c6.94-17.59 2.15-29.57-14.45-36.11l-10.35-4.08-70.86 179.69zm109.46 298.2L5213.3 651.9c27.33-53.37 62.4-69.17 105.14-47.29l48.71 24.96c42.75 21.89 50.42 59.58 23.09 112.95l-185.76 362.71c-27.33 53.37-62.4 69.16-105.14 47.27l-48.71-24.96c-42.75-21.89-50.42-59.57-23.09-112.94zm265.6-342.02l-202.15 394.69c-6 11.71-3.26 20.49 8.08 26.31 11.11 5.68 19.59 2.65 25.58-9.06l202.15-394.69c5.98-11.7 3.49-20.36-7.62-26.05-11.33-5.8-20.06-2.9-26.05 8.8zm436 180.56l-194.53 205.75-112.15 272.59-70.46-45.18 79.59-177.3-1.02-.66L5303 1254.89l-70.8-45.39 200.91-215.67 105.77-262.66 70.8 45.39-77.75 173.71 1.02.65 125.75-142.94 70.45 45.17zm-239.61 528.38l351.08-446.75 63.28 49.73-351.08 446.76-63.28-49.74zm136.23 105.23l372.04-429.47 60.83 52.7-132.32 228.95 170.03-196.28 60.83 52.7-372.04 429.47-60.83-52.7 115.2-208.99-152.92 176.32-60.83-52.7zm486.25 87.26l68.86 72.24-140.57 134.02c-43.4 41.38-81.62 44.64-114.65 9.98l-37.68-39.52c-32.85-34.46-27.59-72.48 15.81-113.85l294.94-281.2c43.4-41.38 81.63-44.82 114.48-10.37l37.68 39.52c33.04 34.66 27.96 72.67-15.44 114.05l-71.84 68.49-55.54-58.25 84.75-80.8c9.52-9.07 10.01-18.07 1.59-26.9-8.98-9.42-18.17-9.55-27.69-.48l-320.37 305.45c-9.52 9.07-9.83 18.27-.85 27.68 8.43 8.84 17.44 8.77 26.95-.3l115.03-109.68-13.32-13.98 37.87-36.1zm-16.39 405.17l463.07-329.27 95.14 133.81-43.29 30.78-48.51-68.21-156.11 111 42.91 60.35-42.64 30.31-42.9-60.35-221.04 157.16-46.64-65.59zm136.09 183.64l492.59-283.2 93.86 163.27-46.04 26.47-53.76-93.48-166.06 95.47 53.75 93.49-45.35 26.07-53.75-93.48-189.78 109.11 54.55 94.88-45.34 26.07-94.67-164.66zm139.6 242.47l517.74-234.07 52.11 115.26c19.62 43.4 2.06 77.53-52.57 102.23l-353.72 159.92c-54.63 24.7-91.85 15.32-111.47-28.08l-52.1-115.26zm80.82 51.79l4.59 10.14c7.35 16.26 19.67 20.41 37.15 12.5l369.73-167.16c17.24-7.79 22.15-19.73 14.8-35.99l-4.59-10.14-421.68 190.64zm33.78 198.12l528.6-208.44 69.08 175.19-49.41 19.48-39.56-100.32-178.2 70.26 39.56 100.33-48.66 19.19-39.56-100.32-203.65 80.3 40.14 101.82-48.67 19.19-69.67-176.69zm89.48 265.21l546.59-155.22 34.56 121.68c13.01 45.82-9.38 76.99-67.06 93.37l-172.39 48.95c-19.87 5.65-35.1 8.02-45.63 7.25-15.19-1.4-28.26-8.71-39.39-21.87l-198.16 111.91-23.42-82.45 190.22-98.64-1.39-4.9-201.94 57.35-21.98-77.43zm517.47-63.28l-242.96 69 2.9 10.19c4.8 16.91 16.25 22.86 34.44 17.7l188.52-53.54c18.2-5.16 24.81-16.25 20.01-33.15l-2.9-10.19zm124.65 286.14l20.48 114.63-548.93 158.28-13.68-76.59 154.07-39.1-10.03-56.12-158.08 16.65-13.69-76.58 569.84-41.16zm-345.83 96.12l8.59 48.07 280.62-72.89-.78-4.36-288.43 29.18zm-178 298.44l513.6-39.04-4.63-60.99 52.97-4.02 15.37 202.24-52.97 4.02-4.63-60.98-513.6 39.04-6.1-80.26zm10.07 213.48l568.03 14.36-2.04 80.46-568.02-14.36 2.03-80.46zm79.64 173.42l406.34 30.89c59.78 4.55 87.93 30.76 84.29 78.65l-4.15 54.57c-3.63 47.88-35.42 69.55-95.21 65l-406.33-30.89c-59.78-4.55-87.93-30.77-84.29-78.65l4.15-54.58c3.64-47.88 35.41-69.54 95.2-64.99zm418.16 112.5l-442.17-33.61c-13.1-1-20.16 4.92-21.12 17.62-.94 12.45 5.15 19.09 18.26 20.08l442.17 33.62c13.1.99 20.13-4.66 21.08-17.1.96-12.69-5.1-19.62-18.21-20.61zm-528.12 171.55l559.35 99.92-14.15 79.23-264.42 3.46 255.65 45.66-14.15 79.22-559.35-99.91 14.15-79.23 238.5-7.94-229.73-41.18 14.15-79.23z"/></g></g></svg>