<svg width="94" height="94" fill="none" xmlns="http://www.w3.org/2000/svg"><path fill-rule="evenodd" clip-rule="evenodd" d="M58.487 25.884c-.043-.045-.132-.11-.22-.108a.33.33 0 00-.222.108h-.109c-.17-.09-.046-.12-.355-.192 0-.27.053-.164-.008-.24a.908.908 0 00-.196-.105c-.25-.058-.163.222-.15.373-.097.064-.216.15-.365.124l-.046-.015c-.024-.075.007-.03-.054-.108l-.258-.317a6.556 6.556 0 00-.28-.348l-.275-.353-.134-.166-.146-.178c-.03-.06-.008-.035-.078-.06-.005-.045.008-.009-.02-.065-.036-.068-.012-.02-.056-.079-.046-.06-.064-.087-.118-.146-.004-.003-.008-.015-.01-.011 0 .003-.007-.01-.009-.012-.025-.025-.02-.02-.036-.032-.061-.111-.179-.24-.265-.346l-.206-.26a4 4 0 00-.038-.037l-.038-.022-.027-.082-.44-.324c-.14-.104-.318-.265-.471-.331-.015-.05 0-.03-.053-.055-.004-.005-.01-.017-.012-.012-.002.004-.01-.01-.013-.013l-.595-.44c-.013-.038-.017-.068-.027-.108.351-.03.368-.53.054-.387-.05.023-.024.013-.045.032a.483.483 0 00-.317.102c-.208.175-.13.082-.243.166-.22.162-.14.301-.35.47-.041.098-.02.074-.113.134-.072.046-.063.04-.16.058-.145.025-.21.039-.328.092.002.128.018.1.027.207-.173.091-.028.014-.454-.068-.272-.052-.29.135-.447.177-.122-.082-.137-.15-.137-.355.07-.095.047-.014.12-.128l.037-.072.007-.073c-.138-.188-.12.122-.41.002-.203-.084-.153-.15-.437-.084.017.204.123.056.095.219-.054.022-.035.009-.095.054h-.055l-.063-.027c-.013-.153-.048-.023-.074-.3-.015-.15-.14-.274-.272-.335-.205-.097-.085.136-.083.141.043.125.013.02 0 .166-.132-.011-.106-.034-.136-.164-.222.052-.111.052-.191.219-.156-.004-.09-.014-.191-.082-.067.017-.155.075-.219.109-.03-.044-.04-.047-.07-.094-.032-.049-.043-.08-.066-.125.071-.016.08-.025.136-.054 0-.128-.015-.106-.027-.193v-.097c.038-.037.027-.089.027-.174-.263-.14-.234-.268-.302-.382l-.108-.11c-.005-.097-.01-.09-.027-.164-.185-.089-.28.026-.417.05-.245.043-.248-.093-.383-.126-.08-.02-.174.008-.212.007-.069-.001-.122-.043-.2-.057-.054-.009-.156.008-.234.017-.111.014-.123.023-.195.082l-.052.163c-.062 0-.125-.004-.184.007-.061.012-.068.03-.144.048.039.167.082.064.082.273-.129.003-.098.026-.243.022-.115-.003-.058-.045-.157.068-.097.108-.018.055-.179.097-.094.025-.117.05-.189.06-.138.047-.207.13-.335.207-.126.077-.272.077-.344.173-.198.051-.169.008-.3-.08-.13.086-.101.086-.165.218-.228 0-.14-.007-.273.082v.167l.012.025c-.147.056-.16-.046-.32.018-.155.061-.042.09-.308.09-.072 0-.02-.006-.035.028-.1 0-.045-.007-.032.027l-.109.028c-.053.069-.078.019-.109.136-.315 0-.25.049-.46.114l-.496.105c-.017.075-.037.143-.054.219-.158-.043-.012-.123-.254-.126a.308.308 0 00-.211.126v.136c-.143-.018-.11-.052-.2-.073-.16-.038-.197.057-.237-.09-.293 0-.12.065-.305.104-.107.023-.24-.015-.15.186.064.145.026.067-.01.201.255.122.35-.098.41.164-.175 0-.155-.008-.273.054v.164c.22 0 .171.003.329.058.173.06.069-.053.3-.058.064.043.074.073.13.114.068.05.1.044.17.077 0 .288-.044.18-.248.165-.091-.006-.127.012-.195.02-.155.018-.208-.001-.42.29-.105.146-.12.135-.12.372.09.043.142.024.16.143.015.094-.023.155-.079.185l-.027.086c-.03.041-.027.02-.027.132-.066.015-.138.029-.192.055.002.078.057.247.082.3.413 0 .06.015.411.136.065.022.051-.003.113.078.015.02-.001.01.033.049.167.195.243.067.481.174 0 .222.028.327.028.535 0 .183-.008.243-.147.302-.126.054-.224.064-.4.064l-.081-.027c-.019-.035-.208-.202-.3-.11-.067.067.003.31-.16.389-.248.12-.242-.17-.622-.13-.17.017-.095-.04-.206-.045-.153-.006-.065.109-.315-.104l-.037-.081c.073-.1.123-.041.137-.22-.072-.038-.26-.145-.327-.163l-.11.11c-.274 0-.009-.048-.328.026l.032.218c-.123 0-.139-.012-.223.028-.029-.108-.16-.218-.237-.282-.113-.093-.254-.065-.336.091-.066-.044-.07-.093-.16-.079-.097.015-.06.032-.082.082-.017.04-.004.067-.067.098-.14.068-.156-.074-.156.324v.063c-.066.007.017-.017-.05.014-.024.01-.046.028-.063.04-.076.053-.014.046-.11.059-.129-.058-.064.007-.132-.084-.053-.072-.007-.162-.41-.162-.034-.065-.063-.093-.082-.164-.15.013-.1.051-.218.082v.103c0 .007.085.22-.137.28-.046-.098-.01-.123-.044-.229-.06-.182-.14-.056-.33-.217-.073-.06-.052-.059-.145-.1l-.082-.164h-.218c-.164-.244-.093-.163-.226-.239-.151-.085-.096-.192-.324-.122-.364.11-.33.136-.543-.268-.388 0-.167.137-.519.137l-.082.218c-.026-.062-.034-.093-.054-.136-.234.123-.177.344-.383.245.035-.13.09-.07.137-.273a5.074 5.074 0 00-.492-.245c-.114.216.006.014-.027.41-.056-.016-.025.008-.055-.028h-.081c-.175.006-.212.182-.247.328-.28 0-.532.244-.371.451.095.123.071.056.071.259h-.273c-.116 0-.128.027-.273.027 0 .154.114.485.164.602.013.075 0 .062.027.108-.187.125-.086.123-.082.328l-.105.027c-.385 0-.438-.273-.476-.32-.062-.08-.376-.368-.457-.39-.238.175-.058.274-.198.459-.045.058-.073.069-.075.142-.078.032-.022.009-.07.033l-.06.03c-.05.028-.074.046-.116.074 0 .592.139.476.164.573-.01.114-.052.262-.055.38-.017.218-.12.278-.136.467.1.008.305.098.363.156a.945.945 0 01.099.15c.046.104.006.053-.025.186.095.063.2.178.3.245.04-.058.044-.036.055-.109.226.004.39.104.6.137.002.053-.017.006.022.062.018.026.043.043.072.063.064.048.088.05.125.12l.07.028c.016.053-.02-.01.033.061.015.02.03.032.047.048l.014.055c.052.04.256.408.3.491-.147 0-.472-.035-.295.183.005.006.242.207.338.188.08-.015.1-.073.188-.05.038.012.107.072.168.1.225.105.048.059.166.112.096.044.139-.044.173-.095.061.032.083.045.137.082.16-.24-.024-.046.21-.2l.134-.139c.006-.004.15-.062.23-.18.14.011.036.02.163.054.066-.125.081-.304.325-.274.144.017.201.112.276.028h.082c-.048.112-.038.08.004.164a.472.472 0 00.031.043c.043.05.017.049.02.012.308-.053.096.06.355.082l.04-.07.054-.082.013-.014.014-.013c.143-.137.18-.067.48-.067.156.023.048.2.273.219-.018.072-.007.03-.028.092-.08.155.07.218.137.317-.012.146-.077.157-.1.26-.027.125.066.132.1.26-.115.076-.212.123-.175.312.033.163.111.247.286.26.057.03.023.021.108.028-.024.09-.031.073-.107.112-.33.172-.178-.122-.482-.102-.2.014-.065-.063-.371.016-.132.034-.23-.084-.539.06-.07.033-.072.06-.14.105.009.106.027.108.027.246-.262.07.11.198.11.492.124.029.079.002.146.008.091.007-.084-.038.039.004l.027.017c.068.07-.002.043-.006.054-.002.004-.011 0-.013 0-.132-.02-.068-.047-.172-.01-.087.032-.089.094-.303.04-.117-.029.027-.029-.12-.023-.141.007-.11.032-.281-.008 0 0-.187.175 0 .3l.131.033c.202.033.143.076.279.213l.339.48c.165.204.125.07.125.53.182 0 .212-.042.355-.054l.19.302c.13.212.069.006.1.087.003.006.014.005.018.005.12.007.12-.06.28 0 .19.07.102.07.368.07 0 .634-.166.413-.098.78.02.108.022.192.043.286.063-.017.315-.25.376-.307.261-.243.083-.119.45-.26.298-.115.93.1 1.06.267l.108.027c.05.094.032.017.082.082.13.052.166.17.307.321.071.076.242.243.267.334.177-.004.35-.078.519-.082 0-.312-.576-3.205-.601-3.632-.02-.142-.078-.329-.082-.492.111-.009.049-.015.137-.027.171-.01.33-.07.502-.082.081-.024.168-.023.237-.055.12 0 .777-.119.817-.164.406-.006.44-.197.719.02l.383.27c.104.074.055.07.182.093.002.06-.091-.011.153.147.433.282.558.333 1.013.544.15.07.199.157.363.183.01.031-.023.017.035.048.058.03.001.021.075.013.083.172.293.197.475.17.096-.015.23-.023.298-.032.719-.092.911-.09 1.64-.09h.318c.245-.003.288.019.58.27.073.061.047.057.103.058 0 .131-.017.06.054.082-.031.093.01.136.047.226.033.08.056.146.09.211.118-.01.174-.052.3-.055v.278l.026.788c.027.157-.03.051.056.109.02.032-.028.015.094.04.073.015.101.01.175.02.087.01.218.029.305.049.012.146.16.468.222.652.023.07.059.143.078.21.02.049.022.053.028.121.106 0 .147.032.227.01.125-.036.262-.205.576-.246.254-.034.62.165.808.29.068-.045.11-.094.17-.157.064-.063.143-.11.185-.178.02-.018.01-.003.037-.04.011-.016.014-.011.03-.05.05-.109.032-.052.016-.12.084-.05.02.06.081-.093.055-.06.072-.062.119-.144.125-.218.076-.16.236-.364.161-.205.129-.205.305-.297.11-.058.072-.079.223-.214l.237-.215c.075-.042.064.034.028-.078l-.028-.01.008-.06.129-.11.049-.027c.29.037.246.074.379.118.17.058 1.208.111 1.456-.008 0-.155-.012-.19-.027-.303-.02-.06-.018-.057-.028-.12-.002-.114-.018-.07-.027-.178.236-.055.247.027.457-.006.197-.03.234-.105.446.005.213.112.527.192.845.192l.082.027c.061-.068.18-.039.3-.218.404.194.528-.15 1.066 0 .049.013.14.045.17.048.134.012.147-.048.148-.048h.078c.082-.056.487-.016.607.007.048.01.17.06.242.088.179.07.083.014.285.014.049.093.26.356.355.41.05.027.218.075.294.09.118.022.154-.025.252-.09 0-.386.005-.108.175-.399l.07-.093c-.055-.083-.132-.106-.12-.205.017-.126.094-.132.148-.205-.002-.093-.038-.3-.078-.359-.085-.123-.115-.005-.201-.263-.043-.128-.127-.16-.166-.27-.03-.083-.008-.104-.035-.185-.022-.067-.054-.058-.066-.16l-.028-.143c-.02-.064-.038-.106-.054-.177.08-.119.252-.252-.08-.248-.419.006-.254-.023-.412-.107v-.11c.084-.055.15-.17.28-.177.14-.008.058.103.38-.01.252-.088.532-.116.788-.194 0-.068-.01.003.027-.028.265.177.175.028.465.028.011-.05.023-.124.04-.179.027-.085.047-.085.069-.176-.135-.032-.193-.108-.3-.137.1-.21.025-.407.069-.668.035-.215.064-.435.094-.643.015-.05.009-.05.027-.095.023-.074.038-.158.053-.235.018-.097.015-.18.084-.216h.137c.045.05.031.017.122.04a.878.878 0 01.147.046c.085.032.151.078.277.078.274 0 .371-.082.6-.082.082.348.316-.03.516-.113.168-.07.333-.305.331-.379l-.264-.473c-.1-.193-.063-.377-.063-.674.055-.037.11-.08.168-.105.125-.054.262-.056.327-.222.052-.133 0-.091-.002-.22-.003-.25.345-.316.517-.573-.082-.122-.083-.095-.236-.146l-.355-.22c-.226-.13.07-.301-.077-.386-.174-.1-.207.209-.467.272-.31.075-.448-.066-.613.18-.23-.122-.558-.145-.542-.434.005-.097.024-.03.026-.143.002-.15.005-.096-.085-.133l-.5-.211c-.25-.079-.086-.557-.795-.707-.233-.05-.528-.005-.671.07.005.243.095.035 0 .247-.132 0-.06-.017-.083.054-.139-.054-.254-.067-.327.027h-.105v-.002zM47 12.88c18.843.001 34.12 15.277 34.12 34.12S65.843 81.118 47 81.118 12.882 65.843 12.882 47c0-18.843 15.275-34.119 34.118-34.119zm0-.864c19.321 0 34.984 15.662 34.984 34.983 0 19.32-15.663 34.984-34.984 34.984-19.32 0-34.983-15.663-34.983-34.984 0-19.32 15.662-34.983 34.983-34.983zm0-10.855c25.316 0 45.838 20.522 45.838 45.838 0 25.316-20.522 45.838-45.838 45.838C21.684 92.838 1.162 72.316 1.162 47 1.162 21.684 21.684 1.162 47 1.162zM47 0c25.957 0 47 21.042 47 47 0 25.957-21.042 47-47 47C21.043 94 0 72.957 0 47S21.043 0 47 0zM24.948 64.164V42.01h4.424v8.567h.157l1.444-8.567h4.456l-2.291 10.7 2.699 11.454h-4.383l-1.925-9.54h-.157v9.54h-4.424zm13.058 0V42.01h6.935c2.217 0 3.326 1.318 3.326 3.954v6.62c0 2.637-1.109 3.955-3.326 3.955h-2.51v7.625h-4.425zm4.424-10.01h.408c.67 0 1.005-.335 1.005-1.01V45.53c0-.717-.325-1.073-.973-1.073h-.44v9.697zm8.1 10.01V42.01h6.622c1.485 0 2.5.46 3.043 1.38.272.46.408 1.204.408 2.229v4.424c0 1.8-1.045 2.699-3.137 2.699v.22c.941-.042 1.73.156 2.369.596.638.439.957 1.119.957 2.04v5.146c0 2.28-1.224 3.42-3.672 3.42h-6.59zm4.425-2.385h.408c.67 0 1.004-.376 1.004-1.135v-5.669c0-.842-.313-1.26-.941-1.26h-.47v8.064zm0-10.167h.408c.67 0 1.004-.345 1.004-1.035v-5.052c0-.712-.345-1.067-1.035-1.067h-.377v7.154zm8.226 12.552V42.01h8.441v2.448h-4.016v6.903h3.765v2.385h-3.765v10.418H63.18zM17.067 78.871l4.895-5.79 1.812 1.533c.58.49.578 1.08-.005 1.768l-1.462 1.73c-.583.689-1.163.788-1.743.298l-.656-.554-1.684 1.992-1.157-.977zm3.368-1.638l.106.09c.175.148.337.134.486-.042l1.682-1.99c.159-.187.152-.352-.017-.495l-.115-.097-2.142 2.534zm.7 5.095l4.235-6.287 1.968 1.326c.63.424.693 1.01.189 1.757l-1.152 1.71c-.28.416-.616.608-1.01.576l-1.06 3.054-1.318-.888 1.107-2.737-.09-.06-1.613 2.395-1.256-.846zm3.283-2.164l.134.09c.178.12.353.052.525-.203l1.266-1.879c.144-.213.13-.379-.043-.494l-.142-.097-1.74 2.583zm1.603 3.97l2.28-4.587c.402-.807.942-1.042 1.622-.704l1.115.554c.68.338.819.91.417 1.718l-2.28 4.587c-.402.808-.942 1.042-1.622.704l-1.115-.554c-.68-.338-.819-.91-.417-1.718zm3.765-4.172l-2.529 5.086c-.073.148-.036.258.111.331.148.074.258.037.331-.111l2.53-5.087c.073-.147.035-.257-.112-.33-.148-.074-.258-.037-.331.11zm.368 7.486l2.64-7.106 2.707 1.005-.291.785-1.289-.478-.822 2.214 1.208.449-.284.765-1.208-.449-1.241 3.342-1.42-.527zm4.105 1.532l1.93-7.332 1.465.386-1.93 7.331-1.465-.385zm2.897.845l1.255-7.476 2.234.375c.502.084.818.297.95.638.065.171.069.43.01.776l-.25 1.493c-.102.607-.506.851-1.212.733l-.013.074c.32.039.576.15.766.335.19.184.26.432.208.743l-.292 1.736c-.13.77-.607 1.085-1.433.946l-2.223-.373zm1.628-.554l.137.023c.226.038.36-.07.404-.326l.32-1.913c.048-.284-.034-.443-.245-.479l-.16-.026-.456 2.721zm.576-3.43l.137.022c.226.038.359-.06.398-.293l.286-1.704c.04-.24-.056-.38-.289-.42l-.127-.02-.405 2.414zm3.2 3.663l.277-5.114c.049-.901.452-1.33 1.21-1.29l1.244.068c.757.04 1.112.511 1.063 1.412l-.277 5.115c-.048.9-.452 1.33-1.21 1.29l-1.243-.068c-.758-.041-1.113-.512-1.064-1.413zm1.805-5.322l-.308 5.672c-.008.165.07.251.234.26.164.01.25-.069.26-.233l.306-5.672c.01-.165-.068-.251-.233-.26-.164-.009-.25.069-.26.233zm3.1 6.822l.617-3.853-.84-3.724 1.535-.045.415 2.426.053-.002.272-2.446 1.546-.046-.63 3.768.852 3.81-1.545.046-.417-2.502-.054.002-.27 2.521-1.535.045zm5.557-.4l-1.055-7.507 1.499-.21 1.055 7.506-1.499.21zm3.009-.459L54.16 82.8l1.467-.374 1.41 2.932.053-.014-.787-3.09 1.467-.374 1.87 7.346-1.466.374-1.343-2.66-.052.013.718 2.82-1.467.373zm5.554-5.474l1.69-.719.968 2.276c.352.828.179 1.39-.52 1.687l-1.234.526c-.699.297-1.225.03-1.578-.8l-2.004-4.713c-.354-.83-.181-1.394.517-1.69l1.147-.488c.691-.294 1.214-.026 1.567.804l.458 1.077-1.393.592-.571-1.342c-.066-.153-.17-.198-.315-.136-.152.064-.195.172-.13.323l2.206 5.188c.075.178.206.228.39.15.178-.077.229-.203.154-.381l-.736-1.73-.297.127-.32-.751zm4.787 2.007l-.645-1.214 1.213-.645.645 1.214-1.213.645zm3.433-1.778l-4.24-6.284 1.254-.847 1.64 2.43.044-.03-1.23-2.706 1.264-.853 1.399 3.474 2.957 2.732-1.243.839-2.372-2.338-.044.03 1.826 2.706-1.255.847zm4.201-2.96l-.588-.725-2.57-5.394-.976.79-.526-.65 2.22-1.797.617.762 2.506 5.412 1.208-.977.513.634-2.404 1.946zM8.683 71.998c.372-.01.844-.113 1.169-.167.587-.098 1.062-.314 1.303-.766.377-.706.081-2.205-.062-2.946-.082 2.286-.409 3.17-2.471 3.783-1.365-2.163-2.618-4.574-3.786-7.173-.157-1.04-.156-2.01.184-2.71 1.124-2.245 7.643-3.243 8.576-.897-2.086-2.064-6.952-.492-8.025 1.101 2.073-1.579 9.743-3.82 5.867 2.21-.121.711-.162 1.002.142 1.642.386-1.308.702-1.22.87-1.637l-.71.248c.038-.153-.03-.011.083-.188.231-.358.785-.571 1.17-.648-.242-.248-.548-.2-.862-.33.53-.292.646-.187 1.167-.238l-.169-.584.628.251c.06-.263.197-.346.164-.71-.03-.337-.234-.59-.367-.86.227.048-.023-.103.252.11.31.24.58 1.036.548 1.563.456.133.88.328 1.118 1.002.36 1.014.228 2.81-.153 3.721l-.48 1.061a.348.348 0 00-.02.038l-.523.76c-.288.326-.634.73-.995 1.067l-.699.816c-.34.578-.314 1.033-.279 1.724.128 1.18.204 2.56.21 3.785a31.461 31.461 0 01-3.044-3.805c.56-.066 1.42-.132 1.854-.28l.256-.15-.072-.702c-.8.235-1.517.347-2.32.476.343.074 1.531.049 1.94-.001-.582.307-1.322.394-1.75.523-.241-.355-.48-.718-.715-1.089zm3.936-5.836c.597-.827 1.15-.85 1.428-2.028-.144.144-.025.018-.108.123-.1.123.004-.007-.057.076l-.316.421c-.152.175-.33.348-.504.533-.263.28-.386.403-.532.702-.092.188-.155.286-.15.532l.24-.359zm1.655 1.738c.226-.966 1.22-3.909.41-4.412.586 1.029-.638 5.238-2.092 6.646.672-.094 1.805-1.849 2.16-2.606l.345-1.028c-.11.147-1.006 1.821-.823 1.4zm71.157 4.098c-.373-.01-.844-.113-1.17-.167-.586-.098-1.061-.314-1.303-.766-.376-.706-.08-2.205.063-2.945.081 2.285.408 3.17 2.47 3.782 1.366-2.163 2.619-4.574 3.786-7.173.157-1.04.157-2.01-.184-2.71-1.123-2.245-7.643-3.243-8.576-.897 2.086-2.064 6.952-.492 8.026 1.101-2.074-1.578-9.743-3.82-5.868 2.21.122.711.163 1.002-.141 1.643-.387-1.309-.702-1.222-.871-1.638l.71.248c-.037-.153.032-.011-.082-.188-.231-.358-.786-.57-1.17-.647.242-.25.547-.2.862-.331-.53-.292-.646-.187-1.168-.238l.17-.584-.629.251c-.06-.263-.197-.345-.163-.71.03-.337.234-.59.367-.86-.228.048.022-.103-.252.11-.31.24-.58 1.037-.549 1.564-.456.132-.88.328-1.118 1.001-.359 1.014-.228 2.81.154 3.722l.48 1.06.02.038.522.76c.288.326.635.731.995 1.067l.7.817c.34.577.314 1.032.278 1.723a38.34 38.34 0 00-.209 3.785 31.46 31.46 0 003.044-3.805c-.56-.066-1.42-.132-1.854-.28l-.256-.15.072-.701c.799.234 1.517.346 2.32.475-.344.074-1.532.049-1.94-.001.581.308 1.321.394 1.749.523.242-.355.48-.718.715-1.088zm-3.937-5.835c-.596-.828-1.15-.85-1.428-2.029.144.144.025.018.109.123.099.124-.004-.007.057.077l.316.42c.151.175.329.348.504.534.263.28.386.402.532.701.092.188.155.286.15.532l-.24-.359zM79.84 67.9c-.226-.966-1.22-3.909-.411-4.411-.585 1.028.64 5.237 2.092 6.645-.671-.094-1.805-1.848-2.16-2.606l-.344-1.028c.11.147 1.006 1.821.823 1.4zM10.937 55.394l-7.001 1.25-.175-.981 3.011-.538-3.102.032-.176-.987 3.423.028 3.56-1.376.172.96-3.234 1.228 3.346-.598.176.982zM3.21 51.859l-.11-1.453 7.034-1.279.074.971-1.968.293.054.711 1.99-.008.074.97-7.148-.205zm4.427-.76l-.046-.61-3.586.554.004.055h3.628zm2.383-2.64l-.777-.02-5.637-1.354-.027 1.08-.665-.017.053-2.085.777.02 5.647 1.355.031-1.252.655.017-.057 2.255zM3.139 43.83l.11-1.453 7.148-.201-.074.97-1.99-.007-.054.711 1.968.292-.074.971-7.034-1.283zm4.491-.083l.047-.61-3.629.006-.004.055 3.586.549zm2.931-2.456l-7-1.25.175-.983 3.011.538-2.92-1.043.175-.987 3.202 1.211 3.817-.058-.172.96-3.46.032 3.348.598-.176.981zm.736-3.466l-6.841-1.943.275-.969 2.946.837.126-.446-2.945-.836.272-.96 6.84 1.943-.272.96-3.265-.928-.127.446 3.266.927-.275.969zm-1.193-4.295l.37-.937 1.56.615c.153.06.26.017.317-.13.055-.14.006-.24-.147-.301l-1.435-.566a.467.467 0 00-.388.006l-.174.08-1.143.42a4.434 4.434 0 01-.3.11.677.677 0 01-.318.027 2.014 2.014 0 01-.325-.106l-1.41-.556c-.698-.275-.938-.691-.72-1.246l.253-.64c.218-.554.678-.694 1.376-.42l1.145.452-.37.937-1.354-.534c-.153-.06-.257-.02-.313.12-.058.147-.01.251.143.311l1.3.513c.24.095.456.105.644.03l1.217-.462a2.98 2.98 0 01.457-.182.67.67 0 01.284.059l1.59.627c.7.276.94.692.721 1.246l-.252.64c-.219.555-.677.696-1.375.42l-1.353-.533zm3.868-2.91l-5.738-2.938-.348.681-.592-.303 1.157-2.259.592.303-.35.681 5.739 2.939-.46.896zM9.61 23.863l.786-1.226 6.388 3.213-.526.82-1.747-.951-.385.6 1.593 1.192-.525.82-5.584-4.468zm3.993 2.058l.33-.514-3.197-1.717-.03.047 2.897 2.184zm3.748-.802l-5.591-4.395.622-.791 2.942 1.517-2.556-2.009.623-.792 5.591 4.395-.622.791-2.682-1.315 2.296 1.806-.622.792zm3.276-3.785l-4.907-5.147 1.148-1.095c.435-.415.912-.35 1.431.194l1.61 1.688c.516.542.557 1.02.12 1.436l-.417.398 1.744 1.83-.729.695zm-1.467-3l.1-.095c.162-.155.161-.316-.002-.488l-1.763-1.849c-.163-.171-.325-.18-.486-.026l-.101.097 2.252 2.362zm4.068.602l-4.394-5.591 1.245-.979c.469-.368.936-.257 1.4.333l1.385 1.764c.16.203.26.368.301.494a.719.719 0 01-.066.56l2.237 1.762-.843.663-2.046-1.734-.05.04 1.623 2.066-.792.622zm-3.19-5.691l1.952 2.486.105-.082c.173-.136.187-.297.04-.483l-1.515-1.929c-.146-.186-.306-.21-.479-.074l-.104.082zm5.538 2.663l-2.753-4.293c-.405-.632-.355-1.111.15-1.435l.577-.37c.506-.325.962-.17 1.367.462l2.753 4.293c.405.632.355 1.11-.15 1.435l-.577.37c-.506.324-.962.17-1.367-.462zm-2.027-5.026l2.996 4.672c.089.138.2.164.335.078.132-.084.152-.195.063-.334l-2.995-4.672c-.09-.139-.198-.166-.33-.082-.134.086-.158.199-.069.337zm5.54 4.008l-3.242-6.33 1.829-.937.303.592-.933.477 1.093 2.134.825-.422.298.582-.825.423 1.548 3.021-.897.46zm2.631-1.367l-2.61-6.616 2.193-.865.244.619-1.256.495.88 2.23 1.255-.495.24.61-1.255.495 1.005 2.548 1.274-.502.24.609-2.211.872zm2.46-3.672l.97-.275.457 1.613c.045.158.144.216.295.173.146-.041.196-.141.151-.3l-.421-1.484a.468.468 0 00-.24-.305 5.545 5.545 0 01-.17-.09l-1.027-.652a4.352 4.352 0 01-.27-.173.68.68 0 01-.215-.236 2.013 2.013 0 01-.112-.322l-.414-1.459c-.205-.722-.02-1.165.553-1.328l.662-.188c.573-.163.964.117 1.169.84l.336 1.183-.97.275-.397-1.4c-.045-.158-.14-.217-.285-.175-.152.043-.205.143-.16.302l.381 1.344c.071.248.193.426.368.53l1.105.686c.102.046.243.13.423.254.049.054.09.142.125.261l.467 1.644c.205.723.02 1.167-.553 1.33l-.662.188c-.573.163-.963-.116-1.168-.838l-.397-1.398zm3.755-1.026l.992-.178.295 1.651c.029.162.12.23.276.202.149-.027.209-.12.18-.283l-.271-1.519a.468.468 0 00-.21-.328 4.414 4.414 0 01-.158-.106l-.958-.751a4.32 4.32 0 01-.25-.2.676.676 0 01-.191-.255 2.019 2.019 0 01-.08-.332l-.267-1.493c-.131-.738.097-1.161.683-1.266l.678-.121c.587-.105.947.213 1.079.952l.216 1.21-.991.178-.256-1.433c-.03-.162-.118-.23-.267-.203-.155.028-.218.123-.19.285l.246 1.375c.046.254.15.444.313.565l1.031.793c.097.056.23.153.396.294a.67.67 0 01.098.272l.3 1.682c.133.74-.095 1.164-.682 1.268l-.677.122c-.587.104-.947-.212-1.08-.95l-.255-1.432zm3.953 1.832l-.897-7.055 1-.127.896 7.055-1 .127zm2.084-1.268l-.129-5.099c-.018-.75.272-1.134.873-1.149l.685-.017c.6-.015.91.353.93 1.103l.129 5.099c.019.75-.272 1.134-.873 1.149l-.685.017c-.6.015-.91-.353-.93-1.103zm.873-5.35l.14 5.55c.004.164.087.244.246.24.156-.004.232-.089.227-.253l-.14-5.548c-.004-.165-.083-.245-.24-.241-.159.004-.237.088-.233.253zm2.755 6.19l.539-7.09 1.004.076.377 3.288.246-3.24 1.005.076-.54 7.09-1.004-.076-.4-2.96-.223 2.913-1.004-.076zm5.608-6.653l1.435.256-.52 7.132-.96-.172.21-1.978-.703-.126-.49 1.929-.958-.172 1.986-6.869zm-.37 4.477l.602.108.36-3.611-.055-.01-.907 3.513zm2.11 3.123l1.6-6.93.98.227-1.45 6.291 1.098.254-.147.638-2.08-.48zm4.201 1.17l2.609-6.617 1.468.58c.557.22.699.68.424 1.378l-.431 1.093c-.275.698-.693.937-1.25.718l-.026.063c.558.22.7.68.424 1.379l-.5 1.266c-.275.698-.692.938-1.25.718l-1.468-.579zm1.168-.244l.13.051c.207.082.355.01.443-.213l.734-1.863c.087-.22.028-.372-.18-.454l-.13-.051-.997 2.53zm1.238-3.14l.13.052c.207.082.353.013.44-.207l.627-1.59c.087-.22.027-.37-.18-.452l-.13-.051-.887 2.249zm1.37 3.733l2.325-4.54c.342-.668.78-.865 1.316-.591l.61.312c.534.274.63.746.288 1.413l-2.324 4.54c-.343.668-.782.865-1.316.592l-.61-.313c-.535-.274-.631-.745-.289-1.413zm3.324-4.28l-2.53 4.94c-.075.146-.04.256.101.328.14.072.245.034.32-.113l2.53-4.94c.075-.146.044-.255-.095-.326-.142-.073-.251-.036-.326.11zm5.457 2.26l-2.435 2.574-1.403 3.412-.882-.565.996-2.22-.013-.008-1.596 1.834-.886-.568 2.514-2.7 1.324-3.287.886.569-.973 2.174.013.008 1.573-1.79.882.566zm-2.999 6.613l4.394-5.592.792.622-4.394 5.592-.792-.622zm1.705 1.316l4.656-5.375.762.66-1.656 2.866 2.128-2.457.761.66-4.656 5.374-.761-.66 1.442-2.615-1.914 2.207-.762-.66zm6.086 1.093l.862.904-1.76 1.678c-.543.517-1.02.558-1.434.124l-.472-.494c-.411-.431-.345-.907.198-1.425l3.691-3.52c.543-.517 1.022-.56 1.433-.13l.471.495c.414.434.35.91-.193 1.428l-.899.857-.695-.729 1.061-1.011c.12-.114.125-.226.02-.337-.112-.118-.228-.12-.347-.006l-4.01 3.823c-.118.114-.122.229-.01.347.105.11.218.11.337-.004l1.44-1.373-.167-.175.474-.452zm-.205 5.07l5.796-4.12 1.19 1.674-.542.385-.607-.853-1.954 1.39.537.754-.533.38-.537-.756-2.767 1.968-.583-.821zm1.703 2.3l6.165-3.546 1.175 2.044-.576.331-.673-1.17-2.078 1.195.673 1.17-.568.327-.673-1.17-2.375 1.365.683 1.188-.568.326-1.185-2.061zm1.747 3.034l6.48-2.93.653 1.442c.245.544.026.971-.658 1.28l-4.427 2.002c-.684.309-1.15.191-1.396-.352l-.652-1.442zm1.012.648l.057.127c.092.203.246.255.465.156l4.628-2.092c.215-.097.277-.247.185-.45l-.058-.127-5.277 2.386zm.423 2.48l6.616-2.61.864 2.194-.618.243-.495-1.255-2.23.88.495 1.255-.61.24-.495-1.256-2.548 1.005.502 1.275-.609.24-.872-2.212zm1.12 3.319l6.84-1.943.433 1.523c.163.574-.117.964-.84 1.169l-2.157.613c-.248.07-.439.1-.57.09a.72.72 0 01-.494-.273l-2.48 1.4-.293-1.032 2.38-1.234-.017-.061-2.527.717-.275-.969zm6.476-.792l-3.04.864.036.127c.06.212.203.286.43.221l2.36-.67c.228-.064.311-.203.25-.415l-.035-.127zm1.56 3.581l.257 1.435-6.87 1.98-.172-.958 1.928-.489-.125-.703-1.979.209-.17-.959 7.131-.515zm-4.328 1.203l.108.602 3.512-.913-.01-.054-3.61.365zm-2.227 3.735l6.428-.488-.058-.764.663-.05.192 2.531-.663.05-.058-.763-6.428.489-.076-1.005zm.126 2.672l7.109.18-.026 1.007-7.109-.18.026-1.007zm.996 2.17l5.086.387c.748.057 1.1.385 1.055.984l-.052.683c-.045.6-.443.87-1.191.814l-5.086-.386c-.748-.057-1.1-.386-1.055-.985l.052-.683c.046-.6.443-.87 1.191-.813zm5.234 1.409l-5.534-.421c-.164-.012-.252.062-.265.22-.011.156.065.24.229.252l5.534.42c.164.013.252-.058.264-.213.012-.16-.064-.246-.228-.258zm-6.61 2.147l7.001 1.25-.177.992-3.31.043 3.2.572-.177.991-7-1.25.176-.992 2.986-.1-2.876-.515.178-.991z" fill="#fff"/></svg>