<svg width="27" height="19" fill="none" xmlns="http://www.w3.org/2000/svg"><path d="M26.437 3.32a3.135 3.135 0 00-.861-1.428 3.432 3.432 0 00-1.506-.835C21.957.5 13.493.5 13.493.5a86.203 86.203 0 00-10.564.529 3.555 3.555 0 00-1.505.855c-.416.4-.718.894-.875 1.435A32.726 32.726 0 00-.001 9.5c-.013 2.071.17 4.14.55 6.18a3.18 3.18 0 00.872 1.428c.417.398.937.684 1.508.836 2.141.556 10.564.556 10.564.556 3.533.04 7.066-.136 10.577-.529a3.431 3.431 0 001.506-.834c.416-.398.712-.892.86-1.43.388-2.037.577-4.107.564-6.181a29.9 29.9 0 00-.563-6.207v.001zM10.802 13.352V5.649l7.043 3.852-7.043 3.851z" fill="#fff"/></svg>